<svg xmlns="http://www.w3.org/2000/svg" viewBox="0 0 71.62 75.47"><defs><style>.cls-1{fill:#f2eee8;}</style></defs><title>Asset 1</title><g id="Layer_2" data-name="Layer 2"><g id="Layer_1-2" data-name="Layer 1"><path class="cls-1" d="M68.47,14.79H3.15a3.15,3.15,0,1,1,0-6.3H68.47a3.15,3.15,0,1,1,0,6.3Z"/><path class="cls-1" d="M43.92,12.92a8.28,8.28,0,0,0-16.23,0l-6.17-1.25a14.58,14.58,0,0,1,28.57,0l-6.17,1.26Z"/><path class="cls-1" d="M14.58,75.47a6.38,6.38,0,0,1-6.26-6.11L5.07,14.8a3.15,3.15,0,0,1,3-3.33,3.09,3.09,0,0,1,3.33,3L14.61,69,57,69.17l3.23-54.75a3.15,3.15,0,0,1,6.28.38L63.29,69.36A6.4,6.4,0,0,1,57,75.47H14.58Z"/><path class="cls-1" d="M23.86,63.91a3.15,3.15,0,0,1-3.14-3l-2.1-37.51a3.15,3.15,0,1,1,6.28-.35L27,60.59a3.15,3.15,0,0,1-3,3.32Z"/><path class="cls-1" d="M47.74,63.91h-.18a3.15,3.15,0,0,1-3-3.32l2.1-37.51a3.15,3.15,0,1,1,6.28.35l-2.1,37.51a3.15,3.15,0,0,1-3.14,3Z"/><path class="cls-1" d="M35.81,63.91a3.15,3.15,0,0,1-3.15-3.15V23.25a3.15,3.15,0,0,1,6.3,0V60.76a3.15,3.15,0,0,1-3.15,3.15Z"/></g></g></svg>