<svg xmlns="http://www.w3.org/2000/svg" viewBox="0 0 17.61 16.7"><defs><style>.cls-1{fill:#0f7ab3;}</style></defs><title>btn_continue_normal</title><g id="Layer_2" data-name="Layer 2"><g id="Layer_1-2" data-name="Layer 1"><path class="cls-1" d="M7.65,8.36A.7.7,0,0,1,7,7.65V3a.7.7,0,0,1,.7-.7.7.7,0,0,1,.71.7v4.7a.71.71,0,0,1-.71.71Z"/><path class="cls-1" d="M7.65,1.83a.7.7,0,0,1-.7-.7V.71A.7.7,0,0,1,7.65,0a.71.71,0,0,1,.71.71v.42a.7.7,0,0,1-.71.7Z"/><path class="cls-1" d="M7.65,15.3a.7.7,0,0,1-.7-.7v-.43a.7.7,0,0,1,.7-.7.7.7,0,0,1,.71.7v.43a.7.7,0,0,1-.71.7Z"/><path class="cls-1" d="M1.13,8.36H.71a.71.71,0,1,1,0-1.42h.42a.71.71,0,0,1,0,1.42Z"/><path class="cls-1" d="M10.61,2.87a.33.33,0,0,1-.17,0,.35.35,0,0,1-.13-.48L10.5,2a.35.35,0,1,1,.61.36l-.19.33a.34.34,0,0,1-.31.17Z"/><path class="cls-1" d="M4.5,13.47a.41.41,0,0,1-.18-.05.35.35,0,0,1-.13-.48l.19-.33a.36.36,0,0,1,.49-.13A.36.36,0,0,1,5,13l-.2.33a.35.35,0,0,1-.3.18Z"/><path class="cls-1" d="M2.52,5a.26.26,0,0,1-.17,0L2,4.8a.36.36,0,0,1-.13-.48.36.36,0,0,1,.49-.13l.33.19a.36.36,0,0,1,.13.49A.37.37,0,0,1,2.52,5Z"/><path class="cls-1" d="M4.69,2.87a.37.37,0,0,1-.31-.17l-.19-.33a.38.38,0,0,1,.13-.49A.37.37,0,0,1,4.81,2L5,2.35a.36.36,0,0,1-.13.48.39.39,0,0,1-.18,0Z"/><path class="cls-1" d="M2.19,11.16A.38.38,0,0,1,1.88,11,.36.36,0,0,1,2,10.5l.33-.19a.35.35,0,1,1,.35.61l-.33.19a.41.41,0,0,1-.18.05Z"/><path class="cls-1" d="M12.78,5a.34.34,0,0,1-.3-.17.36.36,0,0,1,.13-.49l.33-.19a.35.35,0,0,1,.35.61L13,5a.31.31,0,0,1-.18,0Z"/><path class="cls-1" d="M5.69,10.32a.66.66,0,0,1-.5-.2.7.7,0,0,1,0-1L7.08,7.23a.69.69,0,0,1,1,0,.7.7,0,0,1,0,1L6.18,10.12a.66.66,0,0,1-.49.2Z"/><path class="cls-1" d="M12.45,16.7a5.16,5.16,0,1,1,5.16-5.15,5.16,5.16,0,0,1-5.16,5.15Zm0-9.48a4.33,4.33,0,1,0,4.33,4.33,4.33,4.33,0,0,0-4.33-4.33Z"/><path class="cls-1" d="M7.65,0a7.65,7.65,0,0,0,0,15.3,7.54,7.54,0,0,0,1.43-.14A8.47,8.47,0,0,1,8,14.1a.51.51,0,0,1-.11-.22H7.65a6.24,6.24,0,1,1,6.14-7.31h.09a11.06,11.06,0,0,1,1.4.65A7.67,7.67,0,0,0,7.65,0Z"/><path class="cls-1" d="M10.76,9.18v5a.11.11,0,0,0,.18.09L15,11.6a.12.12,0,0,0,0-.2L10.94,9.08A.12.12,0,0,0,10.76,9.18Z"/></g></g></svg>