<svg xmlns="http://www.w3.org/2000/svg" viewBox="0 0 30 30"><defs><style>.cls-1{fill:#171c8f;}.cls-2{fill:#f2eee8;}.cls-3{fill:#fff;}</style></defs><title>Asset 146</title><g id="Layer_2" data-name="Layer 2"><g id="Layer_1-2" data-name="Layer 1"><circle class="cls-1" cx="15" cy="15" r="15"/><path class="cls-2" d="M22.86,11.34a.75.75,0,0,0-.59-.29h-13L8.64,9A.71.71,0,0,0,8,8.41L5.15,8.29a.69.69,0,0,0-.76.7.72.72,0,0,0,.7.76l2.28.1.57,2.07s0,0,0,.06L9.82,18.8a.88.88,0,0,0,.1.22.6.6,0,0,0,.08.08l.08.09a.75.75,0,0,0,.13.06l.08.05a.86.86,0,0,0,.24,0h9.86a.74.74,0,0,0,.71-.54L23,12A.73.73,0,0,0,22.86,11.34Zm-3,6.53H11.09L9.62,12.52H21.31Z"/><path class="cls-2" d="M12.28,19.67a2,2,0,1,0,2,2A2,2,0,0,0,12.28,19.67Zm0,2.57a.55.55,0,0,1-.55-.55.55.55,0,1,1,1.1,0A.55.55,0,0,1,12.28,22.24Z"/><path class="cls-2" d="M18.4,19.67a2,2,0,1,0,2,2A2,2,0,0,0,18.4,19.67Zm0,2.57a.55.55,0,0,1-.55-.55.54.54,0,0,1,.55-.55.55.55,0,0,1,.55.55A.55.55,0,0,1,18.4,22.24Z"/><path class="cls-3" d="M15.49,9.39l.06,0,0,0a.47.47,0,0,0,.16,0,.53.53,0,0,0,.16,0l.05,0,.05,0L18.4,7.66A.45.45,0,0,0,18.49,7a.44.44,0,0,0-.62-.1L16.19,8.16V4.26a.44.44,0,1,0-.88,0v3.9L13.63,6.94a.44.44,0,0,0-.52.72Z"/></g></g></svg>