<svg id="Layer_1" data-name="Layer 1" xmlns="http://www.w3.org/2000/svg" viewBox="0 0 50 50"><defs><style>.cls-1{fill:#fff;}</style></defs><title>btn_hd_notification</title><path class="cls-1" d="M5.7,43.74a1.86,1.86,0,0,1-.85-.2A1.9,1.9,0,0,1,4,41l.54-1c1.63-3.17,2.13-4.13,3-14.86S15.67,6.93,25.33,6.93h1.16a1.9,1.9,0,1,1,0,3.8H25.33c-7.71,0-13.35,5.89-14,14.66-.85,11-1.4,12.49-3.38,16.3l-.52,1a1.89,1.89,0,0,1-1.7,1Z"/><path class="cls-1" d="M45.78,43.74a1.89,1.89,0,0,1-1.7-1l-.52-1c-2-3.81-2.52-5.27-3.38-16.3-.68-8.77-6.32-14.66-14-14.66H25a1.9,1.9,0,1,1,0-3.8h1.16c9.66,0,17,7.47,17.83,18.16s1.32,11.68,3,14.85l.53,1a1.9,1.9,0,0,1-.84,2.56,1.83,1.83,0,0,1-.85.2Z"/><path class="cls-1" d="M46.1,43.81a1.72,1.72,0,0,1-.39,0,98.06,98.06,0,0,0-39.94,0A1.9,1.9,0,1,1,5,40.05a101.74,101.74,0,0,1,41.49,0,1.9,1.9,0,0,1-.39,3.76Z"/><path class="cls-1" d="M25.74,10.34a1.9,1.9,0,0,1-1.9-1.9V4.6a1.9,1.9,0,0,1,3.8,0V8.44a1.9,1.9,0,0,1-1.9,1.9Z"/><path class="cls-1" d="M25.74,47.36a5.68,5.68,0,0,1-5.68-5.68,1.9,1.9,0,0,1,3.8,0,1.89,1.89,0,0,0,3.77,0,1.9,1.9,0,0,1,3.8,0,5.69,5.69,0,0,1-5.69,5.68Z"/></svg>