<?xml version="1.0" encoding="utf-8"?>
<!-- Generator: Adobe Illustrator 24.1.3, SVG Export Plug-In . SVG Version: 6.00 Build 0)  -->
<svg version="1.1"
	 id="svg8" inkscape:version="0.92.3 (2405546, 2018-03-11)" sodipodi:docname="PDF file icon.svg" xmlns:cc="http://creativecommons.org/ns#" xmlns:dc="http://purl.org/dc/elements/1.1/" xmlns:inkscape="http://www.inkscape.org/namespaces/inkscape" xmlns:rdf="http://www.w3.org/1999/02/22-rdf-syntax-ns#" xmlns:sodipodi="http://sodipodi.sourceforge.net/DTD/sodipodi-0.dtd" xmlns:svg="http://www.w3.org/2000/svg"
	 xmlns="http://www.w3.org/2000/svg" xmlns:xlink="http://www.w3.org/1999/xlink" x="0px" y="0px" viewBox="0 0 213.5 262.5"
	 style="enable-background:new 0 0 213.5 262.5;" xml:space="preserve">
<style type="text/css">
	.st0{fill:#FF2116;}
	.st1{fill:#F5F5F5;}
</style>
<sodipodi:namedview  bordercolor="#666666" borderopacity="1.0" fit-margin-bottom="0" fit-margin-left="0" fit-margin-right="0" fit-margin-top="0" id="base" inkscape:current-layer="g899" inkscape:cx="122.12727" inkscape:cy="167.02823" inkscape:document-units="mm" inkscape:object-nodes="false" inkscape:pageopacity="0.0" inkscape:pageshadow="2" inkscape:snap-others="false" inkscape:snap-page="false" inkscape:window-height="705" inkscape:window-maximized="1" inkscape:window-width="1366" inkscape:window-x="-8" inkscape:window-y="-8" inkscape:zoom="0.98994949" pagecolor="#ffffff" showgrid="false">
	</sodipodi:namedview>
<g id="layer1" transform="translate(36.076172,-93.731774)" inkscape:groupmode="layer" inkscape:label="Capa 1">
	<g id="g899" transform="matrix(1.4843054,0,0,1.4843054,17.471885,-90.243502)">
		<g id="g876">
			<path id="path890" inkscape:connector-curvature="0" class="st0" d="M-17.8,123.9c-10.1,0-18.3,8.2-18.3,18.3v140.3
				c0,10.1,8.2,18.3,18.3,18.3H89.5c10.1,0,18.3-8.2,18.3-18.3V167.2c0,0,0.3-3.4-1.2-6.7c-1.4-3.1-3.6-5.2-3.6-5.2c0,0,0,0,0,0
				l-26.6-26.1c0,0,0,0,0,0c0,0-2.3-2.2-5.6-3.6c-4-1.7-8.1-1.5-8.1-1.5l0.1,0L-17.8,123.9z"/>
			<path id="rect2684" inkscape:connector-curvature="0" class="st1" d="M-17.8,129.9h80.4c0,0,0,0,0.1,0c0,0,3.2,0,5.6,1
				c2.3,1,3.9,2.4,3.9,2.5c0,0,0,0,0,0l26.6,26c0,0,1.6,1.7,2.4,3.4c0.6,1.4,0.7,4,0.7,4c0,0,0,0.1,0,0.1v115.5
				c0,6.8-5.4,12.3-12.3,12.3H-17.8c-6.8,0-12.3-5.4-12.3-12.3V142.2C-30.1,135.4-24.7,129.9-17.8,129.9L-17.8,129.9z"/>
			
				<path id="path2697" inkscape:connector-curvature="0" sodipodi:nodetypes="scccscccscccccssscacccsccccccccccccccccccccaccccccccc" class="st0" d="
				M-12.2,259.9c-5.6-5.6,0.5-13.3,17-21.5l10.4-5.2l4-8.9c2.2-4.9,5.5-12.8,7.4-17.7l3.3-8.8l-2.3-6.5c-2.8-8-3.8-20-2-24.4
				c2.4-5.9,10.4-5.3,13.5,1c2.5,4.9,2.2,13.8-0.7,25l-2.4,9.2l2.1,3.6c1.2,2,4.5,6.6,7.5,10.4l5.6,7l7-0.9c22.1-2.9,29.7,2,29.7,9
				c0,8.9-17.4,9.6-31.9-0.6c-3.3-2.3-5.5-4.6-5.5-4.6s-9.1,1.9-13.6,3.1c-4.6,1.3-7,2-13.8,4.3c0,0-2.4,3.5-3.9,6
				c-5.8,9.4-12.5,17.1-17.4,20C-3.7,262.5-9.3,262.7-12.2,259.9z M-3.3,256.7c3.2-2,9.6-9.5,14-16.5l1.8-2.8l-8.2,4.1
				c-12.6,6.3-18.4,12.3-15.4,15.9C-9.4,259.4-7.4,259.2-3.3,256.7L-3.3,256.7z M78.5,233.7c3.1-2.2,2.6-6.5-0.9-8.3
				c-2.7-1.4-4.9-1.6-12-1.5c-4.3,0.3-11.3,1.2-12.5,1.4c0,0,3.8,2.6,5.5,3.6c2.3,1.3,7.8,3.7,11.8,4.9
				C74.5,235.1,76.8,235,78.5,233.7L78.5,233.7z M45.6,220c-1.9-2-5.1-6.1-7.1-9.1c-2.6-3.5-4-5.9-4-5.9s-1.9,6.2-3.5,9.9l-4.9,12.2
				l-1.4,2.8c0,0,7.6-2.5,11.5-3.5c4.1-1.1,12.4-2.7,12.4-2.7L45.6,220z M35,177.5c0.5-4,0.7-8-0.6-10c-3.6-3.9-7.9-0.6-7.1,8.6
				c0.2,3.1,1,8.5,2.1,11.7l1.9,6l1.3-4.5C33.2,186.8,34.4,181.5,35,177.5L35,177.5z"/>
		</g>
	</g>
</g>
</svg>
