<svg xmlns="http://www.w3.org/2000/svg" viewBox="0 0 54.97 45.78"><defs><style>.cls-1{fill:#fff;}</style></defs><title>btn_camera</title><g id="Layer_2" data-name="Layer 2"><g id="Layer_1-2" data-name="Layer 1"><path class="cls-1" d="M15.11,44.46a1.18,1.18,0,0,1-1.18-1.18V8.43a1.18,1.18,0,0,1,2.36,0V43.28a1.18,1.18,0,0,1-1.18,1.18Z"/><path class="cls-1" d="M33,38.73A12.88,12.88,0,1,1,45.92,25.86,12.88,12.88,0,0,1,33,38.73Zm0-23.39A10.52,10.52,0,1,0,43.56,25.86,10.53,10.53,0,0,0,33,15.34Z"/><path class="cls-1" d="M49.34,45.78H5.62A5.62,5.62,0,0,1,0,40.16V11.56A5.63,5.63,0,0,1,5.62,5.93H19.85L23.8.9A2.36,2.36,0,0,1,25.66,0H40.43a2.37,2.37,0,0,1,1.86.9l3.94,5h3.11A5.64,5.64,0,0,1,55,11.56v28.6a5.63,5.63,0,0,1-5.63,5.62ZM5.62,10.65a.9.9,0,0,0-.9.91v28.6a.9.9,0,0,0,.9.91H49.34a.91.91,0,0,0,.91-.91V11.56a.91.91,0,0,0-.91-.91H45.09a2.36,2.36,0,0,1-1.86-.9l-3.95-5H26.8l-3.95,5a2.34,2.34,0,0,1-1.85.9Z"/></g></g></svg>