<svg xmlns="http://www.w3.org/2000/svg" viewBox="0 0 62 62"><defs><style>.cls-1{fill:#171c8f;}.cls-2{fill:#fff;}</style></defs><g id="Layer_2" data-name="Layer 2"><g id="Layer_1-2" data-name="Layer 1"><rect class="cls-1" width="62" height="62"/><path class="cls-2" d="M45.35,37.5l-1-5.6L40,35.53l-4.37,3.63,2.75,1A11.82,11.82,0,0,1,31,42.81,12,12,0,0,1,19.18,32.63l-3.85.55A15.85,15.85,0,0,0,31,46.7a15.69,15.69,0,0,0,11.54-5l3.82,1.41Z"/><path class="cls-2" d="M17.61,30.1,22,26.47l4.37-3.64-2.75-1a11.82,11.82,0,0,1,7.45-2.63A12,12,0,0,1,42.82,29.37l3.85-.55A15.85,15.85,0,0,0,31.05,15.3a15.69,15.69,0,0,0-11.54,5L15.69,18.9l1,5.6Z"/></g></g></svg>