<svg id="Layer_1" data-name="Layer 1" xmlns="http://www.w3.org/2000/svg" viewBox="0 0 80 80"><defs><style>.cls-1{fill:#e00;}.cls-2{fill:#f2eee8;}</style></defs><title>btn_shortleave</title><rect class="cls-1" x="0.1" width="79.9" height="80"/><path class="cls-2" d="M36.21,41.13a2,2,0,0,1-2.05-2V25.52a2,2,0,0,1,4.09,0V39.09a2,2,0,0,1-2,2Z"/><path class="cls-2" d="M36.21,22.29a2.05,2.05,0,0,1-2.05-2.05V19a2,2,0,1,1,4.09,0v1.21a2.05,2.05,0,0,1-2,2.05Z"/><path class="cls-2" d="M36.21,61.2a2,2,0,0,1-2.05-2V57.94a2,2,0,0,1,4.09,0v1.22a2,2,0,0,1-2,2Z"/><path class="cls-2" d="M17.36,41.13H16.14a2,2,0,0,1,0-4.08h1.22a2,2,0,0,1,0,4.08Z"/><path class="cls-2" d="M44.77,25.29a1,1,0,0,1-.89-1.53l.55-1a1,1,0,0,1,1.77,1l-.55,1a1,1,0,0,1-.88.51Z"/><path class="cls-2" d="M27.09,55.89a1,1,0,0,1-.88-1.52l.55-1a1,1,0,1,1,1.77,1l-.55,1a1,1,0,0,1-.89.51Z"/><path class="cls-2" d="M21.39,31.55a1,1,0,0,1-.51-.13l-1-.56a1,1,0,1,1,1-1.76l1,.55a1,1,0,0,1-.51,1.9Z"/><path class="cls-2" d="M27.65,25.29a1,1,0,0,1-.88-.51l-.55-1a1,1,0,0,1,.37-1.39,1,1,0,0,1,1.4.37l.55,1a1,1,0,0,1-.38,1.4,1,1,0,0,1-.51.13Z"/><path class="cls-2" d="M20.43,49.22a1,1,0,0,1-.89-.51,1,1,0,0,1,.38-1.4l1-.54a1,1,0,1,1,1,1.77l-.95.55a1,1,0,0,1-.51.13Z"/><path class="cls-2" d="M51,31.55a1,1,0,0,1-.51-1.9l1-.55a1,1,0,1,1,1,1.76l-1,.56a1,1,0,0,1-.51.13Z"/><path class="cls-2" d="M30.53,46.81a2,2,0,0,1-1.45-.59,2.06,2.06,0,0,1,0-2.89l5.46-5.46a2,2,0,0,1,2.89,2.89L32,46.22a2,2,0,0,1-1.44.59Z"/><path class="cls-2" d="M53.33,63A12.67,12.67,0,1,1,66,50.35,12.69,12.69,0,0,1,53.33,63Zm0-23.3A10.63,10.63,0,1,0,64,50.35,10.64,10.64,0,0,0,53.33,39.72Z"/><path class="cls-2" d="M59,52.39H47.69a2,2,0,0,1,0-4.08H59a2,2,0,0,1,0,4.08Z"/><path class="cls-2" d="M36.21,61.2A22.11,22.11,0,1,1,58.32,39.09H54.23A18,18,0,1,0,43.35,55.64L45,59.39a22,22,0,0,1-8.76,1.81Z"/></svg>