<svg xmlns="http://www.w3.org/2000/svg" viewBox="0 0 18.62 19.89"><defs><style>.cls-1{fill:#fff;}</style></defs><title>btn_icon_servicecart</title><g id="Layer_2" data-name="Layer 2"><g id="Layer_1-2" data-name="Layer 1"><path class="cls-1" d="M18.47,7.53a.73.73,0,0,0-.58-.29H4.83l-.57-2.1a.74.74,0,0,0-.68-.54L.77,4.48a.7.7,0,0,0-.77.7.73.73,0,0,0,.7.76L3,6l.57,2.07v.06L5.43,15a.68.68,0,0,0,.1.21l.08.09.09.09.12.06.08.05.24,0H16a.74.74,0,0,0,.71-.53L18.6,8.17A.74.74,0,0,0,18.47,7.53Zm-3,6.53H6.7L5.24,8.71H16.92Z"/><path class="cls-1" d="M7.89,15.86a2,2,0,1,0,2,2A2,2,0,0,0,7.89,15.86Zm0,2.56a.55.55,0,0,1-.55-.55.55.55,0,0,1,.55-.55.55.55,0,0,1,.55.55A.54.54,0,0,1,7.89,18.42Z"/><path class="cls-1" d="M14,15.86a2,2,0,1,0,2,2A2,2,0,0,0,14,15.86Zm0,2.56a.55.55,0,0,1-.55-.55.55.55,0,0,1,.55-.55.55.55,0,0,1,.55.55A.54.54,0,0,1,14,18.42Z"/><path class="cls-1" d="M11.1,5.58l.06,0,.05,0a.4.4,0,0,0,.15,0,.41.41,0,0,0,.16,0l.05,0,.06,0L14,3.84a.44.44,0,1,0-.52-.71L11.81,4.35V.44a.45.45,0,0,0-.89,0V4.35L9.24,3.13a.44.44,0,1,0-.52.71Z"/></g></g></svg>