<svg xmlns="http://www.w3.org/2000/svg" width="26.333" height="18.625" viewBox="0 0 26.333 18.625">
  <g id="_4JlNhn.tif" data-name="4JlNhn.tif" transform="translate(-263.795 -308.7)">
    <g id="Group_13" data-name="Group 13" transform="translate(263.795 308.7)">
      <path id="Path_26" data-name="Path 26" d="M307.711,314.856c-.079-.039-.1-.052-.123-.06-1.893-.666-3.784-1.336-5.681-1.988a.882.882,0,0,0-.581.009c-.659.281-1.3.594-1.946.912-.264.13-.256.3,0,.46q2,1.3,4.007,2.594a.359.359,0,0,0,.291,0c.538-.242,1.07-.5,1.6-.752C306.074,315.652,306.868,315.264,307.711,314.856Z" transform="translate(-293.573 -312.118)" fill="#fff"/>
      <path id="Path_27" data-name="Path 27" d="M263.8,315.457c.327-.155.652-.316.984-.46a.437.437,0,0,1,.282-.009c1.224.39,2.446.788,3.669,1.184a2.387,2.387,0,0,1,.36.109,1.429,1.429,0,0,0,1.416-.114c1.328-.68,2.686-1.3,4.031-1.95l2.509-1.2,3.947-1.893c.867-.416,1.732-.835,2.6-1.249.616-.294,1.227-.6,1.856-.864a4.358,4.358,0,0,1,1-.25,5.53,5.53,0,0,1,.943-.055,5.039,5.039,0,0,1,1.976.376c.378.166.746.405.761.865a1.842,1.842,0,0,1-.194.891,3.687,3.687,0,0,1-1.679,1.577q-1.647.809-3.3,1.6c-.554.266-1.117.516-1.669.785a.441.441,0,0,0-.2.23q-.752,2.112-1.488,4.23-.853,2.437-1.706,4.874c-.184.523-.39,1.038-.559,1.566a1.416,1.416,0,0,1-.9.859c-.537.236-1.056.511-1.583.769h-.1c-.052-.1-.143-.206-.147-.311a5.259,5.259,0,0,1,.048-.711c.065-.614.137-1.228.2-1.843.041-.388.068-.778.109-1.166.064-.6.136-1.194.2-1.791.04-.38.067-.761.109-1.14.081-.731.17-1.462.252-2.193.022-.194.031-.39.047-.6-.717.32-1.388.657-2.086.923-.839.319-1.691.612-2.555.85-.825.228-1.671.382-2.512.547a8.126,8.126,0,0,1-1.232.151,1.853,1.853,0,0,1-1.366-.336c-.381-.329-.763-.657-1.116-1.015-.679-.689-1.341-1.394-2-2.1-.312-.333-.6-.686-.9-1.029Z" transform="translate(-263.795 -308.7)" fill="#fff"/>
      <path id="Path_28" data-name="Path 28" d="M307.711,314.856c-.843.409-1.637.8-2.433,1.179-.532.256-1.064.51-1.6.752a.359.359,0,0,1-.291,0q-2.009-1.288-4.007-2.594c-.253-.164-.26-.329,0-.46.642-.318,1.287-.631,1.946-.912a.882.882,0,0,1,.581-.009c1.9.652,3.788,1.322,5.681,1.988C307.611,314.8,307.632,314.817,307.711,314.856Z" transform="translate(-293.573 -312.118)" fill="#fff"/>
    </g>
  </g>
</svg>
