<svg xmlns="http://www.w3.org/2000/svg" width="24.243" height="19.833" viewBox="0 0 24.243 19.833">
  <g id="_4JlNhn.tif" data-name="4JlNhn.tif" transform="translate(-251.613 -295.544)">
    <g id="Group_14" data-name="Group 14" transform="translate(251.613 295.544)">
      <path id="Path_29" data-name="Path 29" d="M314.946,306.5c.589-.232,1.178-.467,1.761-.714a.384.384,0,0,0,.209-.233c.3-1.682.589-3.366.879-5.049.055-.319-.07-.445-.365-.333-.719.274-1.436.554-2.138.868a.947.947,0,0,0-.431.451c-.87,1.971-1.721,3.95-2.577,5.927-.01.024-.015.05-.042.141C313.179,307.193,314.064,306.85,314.946,306.5Z" transform="translate(-301.919 -299.35)" fill="#fff"/>
      <path id="Path_30" data-name="Path 30" d="M275.416,295.544c-.361.145-.725.283-1.08.44a.471.471,0,0,0-.213.216c-.586,1.249-1.163,2.5-1.743,3.754a2.555,2.555,0,0,0-.177.364,1.535,1.535,0,0,1-1.122,1.033c-1.505.551-2.987,1.165-4.478,1.754l-2.779,1.1-4.371,1.729c-.96.38-1.921.756-2.881,1.138-.681.271-1.369.528-2.035.832a4.686,4.686,0,0,0-.925.6,5.942,5.942,0,0,0-.731.7,5.411,5.411,0,0,0-1.145,1.832,1.113,1.113,0,0,0,.127,1.23,1.978,1.978,0,0,0,.844.5,3.958,3.958,0,0,0,2.467-.172q1.839-.708,3.67-1.436c.614-.243,1.221-.5,1.836-.743a.475.475,0,0,1,.326.012q2.213.948,4.419,1.913,2.543,1.105,5.086,2.211c.546.237,1.1.45,1.642.7a1.52,1.52,0,0,0,1.332-.081c.578-.251,1.173-.46,1.761-.687l.075-.081c-.044-.116-.058-.263-.138-.342a5.593,5.593,0,0,0-.6-.482c-.531-.4-1.068-.788-1.6-1.185-.336-.251-.663-.514-1-.764-.517-.386-1.04-.763-1.557-1.149-.329-.245-.648-.5-.978-.746-.635-.47-1.276-.933-1.912-1.4-.169-.125-.33-.26-.508-.4.776-.331,1.531-.614,2.249-.971.863-.428,1.715-.886,2.534-1.393.781-.484,1.52-1.038,2.263-1.581a8.774,8.774,0,0,0,1.018-.861,1.991,1.991,0,0,0,.731-1.321c.019-.54.039-1.081.014-1.62-.048-1.037-.12-2.073-.2-3.109-.035-.489-.1-.975-.152-1.463Z" transform="translate(-251.613 -295.544)" fill="#fff"/>
      <path id="Path_31" data-name="Path 31" d="M312.242,307.559c.937-.366,1.822-.709,2.7-1.057.589-.232,1.178-.467,1.761-.714a.384.384,0,0,0,.209-.233c.3-1.682.589-3.366.879-5.049.055-.319-.07-.445-.365-.333-.719.274-1.436.554-2.138.868a.947.947,0,0,0-.431.451c-.87,1.971-1.721,3.95-2.577,5.927C312.274,307.442,312.269,307.468,312.242,307.559Z" transform="translate(-301.919 -299.35)" fill="#fff"/>
    </g>
  </g>
</svg>
