<svg xmlns="http://www.w3.org/2000/svg" width="37" height="37.001" viewBox="0 0 37 37.001">
  <path id="Subtraction_1" data-name="Subtraction 1" d="M-1801-1528h-37v-37h37v37Zm-17.228-18.294v0c0,.054-.008.108-.011.161l0,.039c-.009.13-.018.264-.032.4q-.055.485-.112.969c-.051.435-.1.828-.141,1.225-.021.2-.039.4-.057.59v.015c-.015.165-.031.352-.05.534-.031.293-.065.591-.1.879l0,.022-.009.077c-.031.268-.062.542-.091.813-.02.189-.037.383-.054.569v.013c-.018.208-.035.395-.055.583-.034.325-.07.654-.106.973-.032.29-.064.58-.095.87l-.009.083a4.448,4.448,0,0,0-.039.628.47.47,0,0,0,.091.214c.02.032.04.064.056.1h.1c.157-.077.313-.155.469-.234l.008,0c.36-.181.732-.367,1.106-.532a1.407,1.407,0,0,0,.9-.859c.1-.327.226-.655.344-.973l.01-.028c.068-.185.139-.376.205-.565q.5-1.426,1-2.855l.07-.2.119-.342.517-1.477.186-.532c.4-1.15.859-2.453,1.3-3.7a.445.445,0,0,1,.2-.23c.3-.146.608-.289.906-.427l.015-.007c.231-.107.493-.228.749-.351,1.119-.538,2.214-1.066,3.3-1.6a3.683,3.683,0,0,0,1.678-1.578,1.848,1.848,0,0,0,.193-.891c-.016-.477-.415-.713-.76-.865a4.989,4.989,0,0,0-1.976-.376h-.127a5.273,5.273,0,0,0-.816.056,4.423,4.423,0,0,0-1,.25c-.484.2-.964.434-1.428.659l-.428.206q-.818.39-1.634.784l-.116.056-.85.409-3.464,1.662-.158.076-.324.156-2.274,1.091-.235.113q-.535.257-1.071.51l-.083.039c-.946.448-1.923.912-2.877,1.4a1.864,1.864,0,0,1-.857.256,1.2,1.2,0,0,1-.559-.142.983.983,0,0,0-.226-.073c-.044-.011-.09-.022-.134-.036l-1.093-.354c-.842-.273-1.714-.555-2.576-.83a.418.418,0,0,0-.129-.019.391.391,0,0,0-.152.028c-.241.1-.479.218-.709.328l-.275.131v.1q.128.146.255.294l.025.029c.2.234.409.477.624.706.7.753,1.34,1.431,2,2.1.337.343.708.663,1.067.973l.049.042a1.638,1.638,0,0,0,1.128.341c.07,0,.146,0,.238-.005a8.029,8.029,0,0,0,1.232-.151l.293-.057c.731-.141,1.487-.288,2.219-.489.778-.215,1.614-.493,2.555-.85.485-.184.947-.4,1.436-.625l.026-.012c.2-.094.412-.191.623-.285Zm-5.726-8.227h-.02a.76.76,0,0,0-.236.038l-.023.008-.007,0-.009,0c-.681.291-1.361.624-1.946.913-.13.064-.2.136-.2.216s.066.161.193.244l.491.319c1.153.749,2.342,1.521,3.516,2.274a.249.249,0,0,0,.093.031l.03,0h.021a.38.38,0,0,0,.148-.028c.506-.228,1.007-.465,1.6-.751.548-.264,1.1-.53,1.658-.8l.116-.057.658-.319-.068-.035a.409.409,0,0,0-.055-.026l-1.116-.393-.122-.043-.021-.007c-1.448-.51-2.946-1.037-4.422-1.544l-.054-.017c-.026-.006-.054-.012-.081-.016A.946.946,0,0,0-1823.953-1554.521Z" transform="translate(1838 1565)" fill="#025ee1"/>
</svg>
