<svg xmlns="http://www.w3.org/2000/svg" width="37" height="37.001" viewBox="0 0 37 37.001">
  <path id="Subtraction_2" data-name="Subtraction 2" d="M-1801-1528h-37v-37h37v37Zm-21.794-13.15a.492.492,0,0,1,.187.036c1.4.6,2.86,1.235,4.147,1.795l.271.118,2.183.949.124.054.026.011,2.752,1.2c.2.089.413.175.616.259l.01,0c.333.138.678.281,1.016.438a1.25,1.25,0,0,0,.535.121,2.027,2.027,0,0,0,.8-.2c.407-.176.826-.334,1.232-.486l.01,0c.173-.065.347-.13.519-.2l.076-.081c-.013-.035-.024-.073-.036-.116a.5.5,0,0,0-.1-.226,4.7,4.7,0,0,0-.509-.417l-.086-.065c-.249-.187-.5-.374-.751-.557l-.048-.035-.019-.014c-.256-.189-.521-.385-.781-.579-.159-.119-.319-.243-.474-.363l-.012-.009-.016-.012c-.162-.126-.33-.255-.5-.38-.27-.2-.549-.407-.8-.588l-.038-.028c-.237-.174-.483-.354-.723-.533-.159-.119-.323-.245-.467-.356-.181-.14-.344-.266-.511-.389-.333-.247-.674-.5-1-.736l-.025-.018-.035-.025q-.425-.31-.849-.622c-.119-.088-.234-.18-.355-.278l-.011-.009-.142-.114c.239-.1.478-.2.71-.3.537-.221,1.042-.429,1.539-.676.969-.481,1.8-.937,2.534-1.393.681-.422,1.341-.9,1.979-1.372l.083-.061.2-.148a8.811,8.811,0,0,0,1.018-.861,1.989,1.989,0,0,0,.731-1.321l0-.063c.018-.51.036-1.037.012-1.556-.047-1.02-.119-2.053-.2-3.109-.024-.332-.063-.668-.1-.994v-.008h0c-.017-.154-.035-.307-.051-.461l-.082-.076-.286.114c-.264.1-.533.211-.794.326a.474.474,0,0,0-.212.215c-.434.925-.884,1.9-1.247,2.682l-.119.257-.378.816c-.021.045-.046.089-.07.132a1.093,1.093,0,0,0-.108.232,1.533,1.533,0,0,1-1.122,1.033c-1.075.394-2.157.827-3.2,1.246l-.017.007q-.628.252-1.258.5l-2.779,1.1-2.068.818-2.3.911-1,.4-.122.048q-.878.346-1.756.694l-.493.195-.007,0c-.507.2-1.031.405-1.535.635a4.715,4.715,0,0,0-.925.6,5.955,5.955,0,0,0-.731.7,5.328,5.328,0,0,0-1.145,1.832,1.119,1.119,0,0,0,.126,1.23,1.978,1.978,0,0,0,.844.5,3.742,3.742,0,0,0,.951.123,4.221,4.221,0,0,0,1.516-.3c1.31-.505,2.59-1.009,3.67-1.436.279-.11.562-.226.835-.339l.007,0c.324-.133.659-.271.994-.4A.4.4,0,0,1-1822.794-1541.149Zm6.488-14.07a.537.537,0,0,0-.184.04c-.652.249-1.409.543-2.137.868a.951.951,0,0,0-.431.452c-.707,1.6-1.408,3.223-2.085,4.79l-.491,1.136a.378.378,0,0,0-.019.058v.005c-.005.019-.012.044-.022.078l.865-.338.033-.013.049-.019c.6-.236,1.177-.459,1.756-.688.562-.221,1.164-.461,1.761-.715a.386.386,0,0,0,.209-.233c.277-1.549.548-3.126.811-4.651l.01-.058.059-.341a.716.716,0,0,0,.013-.124.269.269,0,0,0-.059-.2A.181.181,0,0,0-1816.306-1555.219Z" transform="translate(1838 1565)" fill="#ffb800"/>
</svg>
