<?xml version="1.0" encoding="utf-8"?>
<!-- Generator: Adobe Illustrator 22.0.1, SVG Export Plug-In . SVG Version: 6.00 Build 0)  -->
<svg version="1.1" id="Layer_1" xmlns="http://www.w3.org/2000/svg" xmlns:xlink="http://www.w3.org/1999/xlink" x="0px" y="0px"
	 viewBox="0 0 40 40" style="enable-background:new 0 0 40 40;" xml:space="preserve">
<style type="text/css">
	.st0{fill:#FF9900;}
	.st1{enable-background:new    ;}
</style>
<title>grid_icon_exception</title>
<path class="st0" d="M32.8,20.9C32.2,28,26,33.4,18.9,32.8S6.5,26,7,18.9S13.8,6.5,20.9,7c2.6,0.2,5.1,1.2,7.2,2.9L31,7.3
	C24,1.1,13.4,1.8,7.2,8.8S1.8,26.4,8.8,32.6S26.4,38,32.5,31c2.7-3.1,4.2-7,4.2-11.1c0-0.8-0.1-1.6-0.2-2.4L32.8,20.9z"/>
<g class="st1">
	<path class="st0" d="M22.6,21.1c0,0.5-0.4,0.9-0.9,0.9h-3.6c-0.5,0-0.9-0.4-0.9-0.9l-0.4-10.8c0-0.5,0.4-0.9,0.9-0.9h4.5
		c0.5,0,0.9,0.4,0.9,0.9L22.6,21.1z M22.6,28.3c0,0.5-0.4,0.9-0.9,0.9h-3.6c-0.5,0-0.9-0.4-0.9-0.9v-3.2c0-0.5,0.4-0.9,0.9-0.9h3.6
		c0.5,0,0.9,0.4,0.9,0.9V28.3z"/>
</g>
</svg>
