<svg xmlns="http://www.w3.org/2000/svg" viewBox="0 0 106.41 106.41"><defs><style>.cls-1{fill:#fff;}</style></defs><title>happiness_icon</title><g id="Layer_2" data-name="Layer 2"><g id="Layer_1-2" data-name="Layer 1"><path class="cls-1" d="M53.2,106.41A53.21,53.21,0,1,1,106.41,53.2,53.27,53.27,0,0,1,53.2,106.41ZM53.2,6a47.21,47.21,0,1,0,47.21,47.2A47.26,47.26,0,0,0,53.2,6Z"/><path class="cls-1" d="M53.33,80.32c-12.3,0-21.8-8.41-21.94-8.54a3,3,0,1,1,4-4.45h0c.71.63,17.55,15.38,33.69,0a3,3,0,1,1,4.13,4.35C66.45,78.17,59.53,80.32,53.33,80.32Z"/></g></g></svg>