<svg xmlns="http://www.w3.org/2000/svg" viewBox="0 0 255.91 254.81"><defs><style>.cls-1{fill:#171c8f;}.cls-2{fill:#fff;}</style></defs><title>icon_time_attendance</title><g id="Layer_2" data-name="Layer 2"><g id="Tas"><rect class="cls-1" width="255.91" height="254.81"/><rect class="cls-2" x="61.61" y="117.18" width="132.78" height="78.04"/><polygon class="cls-2" points="184.58 79.27 184.58 88.75 184.58 88.75 184.58 98.23 156.14 98.23 156.14 88.75 156.14 88.75 156.14 79.27 99.29 79.27 99.29 88.75 99.28 88.75 99.28 98.23 70.85 98.23 70.85 88.75 70.85 88.75 70.85 79.27 51.89 79.27 51.89 107.7 203.53 107.7 203.53 79.27 184.58 79.27"/><polygon class="cls-2" points="89.81 79.27 89.81 60.31 80.33 60.31 80.33 79.27 80.33 88.75 89.81 88.75 89.81 79.27"/><polygon class="cls-2" points="175.1 79.27 175.1 60.31 165.62 60.31 165.62 79.27 165.62 88.75 175.1 88.75 175.1 79.27"/><path class="cls-2" d="M184.57,210.38A33.37,33.37,0,1,1,217.94,177,33.4,33.4,0,0,1,184.57,210.38Z"/><path class="cls-1" d="M184.57,147.31A29.71,29.71,0,1,1,154.87,177a29.71,29.71,0,0,1,29.7-29.71m4.6,39,4.66-4.67-6-6V160.27h-6.6V177a3.28,3.28,0,0,0,1,2.33h0l6.93,6.93M184.57,140a37,37,0,1,0,37,37,37.08,37.08,0,0,0-37-37Z"/></g></g></svg>