<?xml version="1.0" encoding="utf-8"?>
<!-- Generator: Adobe Illustrator 22.1.0, SVG Export Plug-In . SVG Version: 6.00 Build 0)  -->
<svg version="1.1" id="Layer_1" xmlns="http://www.w3.org/2000/svg" xmlns:xlink="http://www.w3.org/1999/xlink" x="0px" y="0px"
	 viewBox="0 0 96 132" style="enable-background:new 0 0 96 132;" xml:space="preserve">
<style type="text/css">
	.st0{fill:#333333;}
	.st1{fill:#171C8F;}
</style>
<title>Artboard 1</title>
<rect x="5.4" y="117.1" class="st0" width="84.3" height="7.1"/>
<rect x="5.9" y="8.9" class="st0" width="84.3" height="7.1"/>
<path class="st0" d="M21.6,114c-0.1-12.1,5.5-19,13.4-27.2c5.8-5.8,9.1-13.7,9-21.9c0-6.8-3.6-12.8-8.3-17.5
	C27,38.8,20.9,31.7,19.5,19.1c-0.2-1.9-4.1-1-3.9,1c0.7,8.6,4.3,16.6,10.2,22.9c6.4,7,13.4,11.8,14.2,22.1
	c0.9,11.3-6.5,18.4-13.6,25.9c-6.3,6.6-8.8,14.2-8.8,23.2C17.6,116.4,21.6,115.9,21.6,114L21.6,114z"/>
<path class="st0" d="M76.6,114c0.1-12.1-5.5-18.9-13.4-27.2c-5.8-5.8-9-13.7-9-21.9c0-6.9,3.6-12.8,8.3-17.5
	c8.6-8.5,14.8-15.6,16.1-28.3c0.2-1.9,4.1-1,3.9,1c-0.7,8.5-4.3,16.6-10.2,22.8C65.9,50,59,54.8,58.2,65.1
	C57.3,76.4,64.7,83.5,71.8,91c6.3,6.6,8.8,14.2,8.8,23.2C80.6,116.4,76.6,115.9,76.6,114L76.6,114z"/>
<path class="st1" d="M26.7,116.1h43.7c0.7-4,0-8.7-2-12.2c-3.4-6.1-9.9-6.4-13.6-14.6s-5.4-5.8-7.5-5.4s-4.7,9.1-9.1,9.1
	s-8.1,6.1-10.5,10.8S26.7,116.1,26.7,116.1z"/>
<path class="st1" d="M34.5,41c6.1,4.1,23.7,1.7,28.1,0c1,4.4-12.2,15.6-12.2,19v10.1c0,0-1.4-2.1-3.4-4.7c0-3.7,0.3-0.3,0-5.4
	S35.2,46,34.5,41z"/>
<rect x="47.8" y="71.4" class="st1" width="2" height="2.4"/>
<rect x="47.8" y="75.6" class="st1" width="2" height="2.4"/>
<rect x="48" y="79.5" class="st1" width="2" height="2.4"/>
</svg>
