<svg id="Layer_1" data-name="Layer 1" xmlns="http://www.w3.org/2000/svg" viewBox="0 0 50 50"><defs><style>.cls-1{fill:#0f7ab3;}</style></defs><title>icon_ft_home</title><path class="cls-1" d="M48.25,22.36,26.55,3.75a1.56,1.56,0,0,0-2.1,0L2.76,22.36a2.46,2.46,0,0,0-.42,3,1.62,1.62,0,0,0,2.52.5l2.59-2.22V43.49a2,2,0,0,0,1.8,2.17H20.8a2,2,0,0,0,1.81-2.17V29.86H28.4V43.49a2,2,0,0,0,1.8,2.17H41.75a2,2,0,0,0,1.81-2.17V23.66l2.58,2.22a1.64,1.64,0,0,0,1,.41,1.73,1.73,0,0,0,1.47-.91A2.45,2.45,0,0,0,48.25,22.36ZM39.94,21V41.33H32V27.69a2,2,0,0,0-1.81-2.16H20.8A2,2,0,0,0,19,27.69V41.33H11.06V21a1.93,1.93,0,0,0,0-.42L25.5,8.17,40,20.59A3.13,3.13,0,0,0,39.94,21Z"/></svg>