<svg id="Layer_1" data-name="Layer 1" xmlns="http://www.w3.org/2000/svg" viewBox="0 0 50 50"><defs><style>.cls-1{fill:#0f7ab3;}.cls-2{fill:#fff;}</style></defs><title>icon_ft_timeattendance</title><path class="cls-1" d="M39.38,38.3H7.75a1.53,1.53,0,0,1-1.54-1.54V11.59a1.53,1.53,0,0,1,1.54-1.54H39.38a1.54,1.54,0,0,1,1.54,1.54V36.76a1.54,1.54,0,0,1-1.54,1.54ZM9.29,35.22H37.84V13.13H9.29V35.22Z"/><path class="cls-1" d="M33.47,15.7a1.54,1.54,0,0,1-1.54-1.54V9A1.54,1.54,0,1,1,35,9v5.14a1.54,1.54,0,0,1-1.54,1.54Z"/><path class="cls-1" d="M13.83,15.7a1.54,1.54,0,0,1-1.55-1.54V9a1.55,1.55,0,0,1,3.09,0v5.14a1.54,1.54,0,0,1-1.54,1.54Z"/><path class="cls-1" d="M39.29,20.69H8a.77.77,0,0,1,0-1.54H39.29a.77.77,0,1,1,0,1.54Z"/><polygon class="cls-1" points="14.95 23.82 11.97 23.82 11.97 26.8 14.95 26.8 14.95 23.82 14.95 23.82"/><polygon class="cls-1" points="20.13 23.82 17.14 23.82 17.14 26.8 20.13 26.8 20.13 23.82 20.13 23.82"/><polygon class="cls-1" points="25.3 23.82 22.31 23.82 22.31 26.8 25.3 26.8 25.3 23.82 25.3 23.82"/><polygon class="cls-1" points="30.48 23.82 27.48 23.82 27.48 26.8 30.48 26.8 30.48 23.82 30.48 23.82"/><polygon class="cls-1" points="35.65 23.82 32.66 23.82 32.66 26.8 35.65 26.8 35.65 23.82 35.65 23.82"/><polygon class="cls-1" points="14.95 28.62 11.97 28.62 11.97 31.61 14.95 31.61 14.95 28.62 14.95 28.62"/><polygon class="cls-1" points="20.13 28.62 17.14 28.62 17.14 31.61 20.13 31.61 20.13 28.62 20.13 28.62"/><polygon class="cls-1" points="25.3 28.62 22.31 28.62 22.31 31.61 25.3 31.61 25.3 28.62 25.3 28.62"/><polygon class="cls-1" points="30.48 28.62 27.48 28.62 27.48 31.61 30.48 31.61 30.48 28.62 30.48 28.62"/><polygon class="cls-1" points="35.65 28.62 32.66 28.62 32.66 31.61 35.65 31.61 35.65 28.62 35.65 28.62"/><circle class="cls-2" cx="32.53" cy="31.25" r="11.26"/><path class="cls-1" d="M32.53,41.36A10.11,10.11,0,1,1,42.64,31.25,10.12,10.12,0,0,1,32.53,41.36Zm0-18.48a8.38,8.38,0,1,0,8.38,8.37,8.38,8.38,0,0,0-8.38-8.37Z"/><path class="cls-1" d="M32.53,32.12a.87.87,0,0,1-.87-.87V25a.87.87,0,0,1,1.74,0v6.25a.87.87,0,0,1-.87.87Z"/><path class="cls-1" d="M32.53,23.44a.87.87,0,0,1-.87-.87V22a.87.87,0,0,1,1.74,0v.56a.87.87,0,0,1-.87.87Z"/><path class="cls-1" d="M32.53,41.36a.87.87,0,0,1-.87-.87v-.56a.87.87,0,0,1,1.74,0v.56a.87.87,0,0,1-.87.87Z"/><path class="cls-1" d="M41.77,32.12h-.56a.87.87,0,1,1,0-1.74h.56a.87.87,0,0,1,0,1.74Z"/><path class="cls-1" d="M23.85,32.12h-.56a.87.87,0,0,1,0-1.74h.56a.87.87,0,1,1,0,1.74Z"/><path class="cls-1" d="M36.47,24.86a.39.39,0,0,1-.21-.06.43.43,0,0,1-.16-.59l.25-.44a.43.43,0,1,1,.75.43l-.25.44a.44.44,0,0,1-.38.22Z"/><path class="cls-1" d="M28.33,39a.41.41,0,0,1-.21-.05.44.44,0,0,1-.16-.6l.25-.44a.43.43,0,0,1,.75.43l-.25.45a.43.43,0,0,1-.38.21Z"/><path class="cls-1" d="M39.8,35.88a.46.46,0,0,1-.22-.06l-.44-.25a.43.43,0,1,1,.44-.75l.44.25a.43.43,0,0,1,.15.59.42.42,0,0,1-.37.22Z"/><path class="cls-1" d="M25.71,27.74a.43.43,0,0,1-.22-.06l-.44-.25a.43.43,0,0,1,.43-.75l.44.25a.43.43,0,0,1,.16.59.42.42,0,0,1-.37.22Z"/><path class="cls-1" d="M28.59,24.86a.44.44,0,0,1-.38-.22L28,24.2a.43.43,0,1,1,.75-.43l.26.44a.44.44,0,0,1-.16.59.46.46,0,0,1-.22.06Z"/><path class="cls-1" d="M36.73,39a.42.42,0,0,1-.37-.21l-.26-.44a.44.44,0,0,1,.16-.6.43.43,0,0,1,.59.16l.26.44a.44.44,0,0,1-.16.59.46.46,0,0,1-.22.06Z"/><path class="cls-1" d="M25.26,35.88a.43.43,0,0,1-.21-.81l.44-.25a.43.43,0,1,1,.43.75l-.44.25a.46.46,0,0,1-.22.06Z"/><path class="cls-1" d="M39.36,27.74a.43.43,0,0,1-.22-.81l.44-.25a.43.43,0,0,1,.59.16.43.43,0,0,1-.15.59l-.44.25a.46.46,0,0,1-.22.06Z"/><path class="cls-1" d="M29.91,34.73a.86.86,0,0,1-.61-1.47l2.52-2.52a.86.86,0,0,1,1.22,0A.87.87,0,0,1,33,32l-2.51,2.51a.88.88,0,0,1-.62.25Z"/></svg>