<svg id="Layer_1" data-name="Layer 1" xmlns="http://www.w3.org/2000/svg" viewBox="0 0 50 50"><defs><style>.cls-1{fill:#0f7ab3;}.cls-2{fill:#fff;}</style></defs><title>icon_ft_services</title><path class="cls-1" d="M27.66,41a.66.66,0,0,1-.67-.66v-8a.67.67,0,0,1,.67-.66h8a.67.67,0,1,1,0,1.33H28.32v7.29a.66.66,0,0,1-.66.66Z"/><path class="cls-1" d="M27.66,41.67H14a1.33,1.33,0,0,1-1.33-1.33V13.12A1.32,1.32,0,0,1,14,11.79H35.61a1.32,1.32,0,0,1,1.33,1.33V32.38a1.32,1.32,0,0,1-.39.94l-8,8a1.29,1.29,0,0,1-.93.39ZM15.28,39H27.11l7.18-7.18V14.44h-19V39Z"/><path class="cls-1" d="M26.22,18.81H18.43a.67.67,0,0,1,0-1.33h7.79a.67.67,0,1,1,0,1.33Z"/><path class="cls-1" d="M31.36,22H18.43a.67.67,0,0,1,0-1.33H31.36a.67.67,0,0,1,0,1.33Z"/><path class="cls-1" d="M31.36,25.22H18.43a.66.66,0,0,1,0-1.32H31.36a.66.66,0,0,1,0,1.32Z"/><path class="cls-1" d="M23.84,28.43H18.43a.67.67,0,0,1,0-1.33h5.41a.67.67,0,1,1,0,1.33Z"/><path class="cls-1" d="M22.24,14.17H14.45a.67.67,0,0,1,0-1.33h7.79a.67.67,0,1,1,0,1.33Z"/><path class="cls-1" d="M10.23,38.52A1.32,1.32,0,0,1,8.9,37.2V10.51a2.65,2.65,0,0,1,2.65-2.65H31.88a1.33,1.33,0,1,1,0,2.65H11.55V37.2a1.32,1.32,0,0,1-1.32,1.32Z"/><circle class="cls-2" cx="31.95" cy="31.92" r="11.26"/><path class="cls-1" d="M32.87,41.75H30.72a1.43,1.43,0,0,1-1.43-1.43V38.93l-.67-.26-1,1a1.47,1.47,0,0,1-2,0L24.06,38.1a1.42,1.42,0,0,1-.42-1,1.39,1.39,0,0,1,.43-1l1-1-.29-.66-1.4,0A1.43,1.43,0,0,1,21.94,33V30.81a1.43,1.43,0,0,1,1.42-1.42h1.4l.26-.67-1-1a1.41,1.41,0,0,1,0-2l1.52-1.52a1.46,1.46,0,0,1,2,0l1,1,.66-.29,0-1.4A1.43,1.43,0,0,1,30.72,22h2.15a1.43,1.43,0,0,1,1.43,1.42v1.4l.67.26,1-1a1.42,1.42,0,0,1,1-.42h0a1.41,1.41,0,0,1,1,.42l1.53,1.53a1.37,1.37,0,0,1,.41,1,1.39,1.39,0,0,1-.42,1l-1,1,.29.66,1.4,0a1.43,1.43,0,0,1,1.42,1.42V33a1.43,1.43,0,0,1-1.42,1.43h-1.4l-.26.67,1,1a1.41,1.41,0,0,1,.41,1,1.38,1.38,0,0,1-.42,1L38,39.63a1.46,1.46,0,0,1-2,0l-1-1-.66.29,0,1.39a1.43,1.43,0,0,1-1.43,1.43ZM31,40.07h1.65V38.93a1.73,1.73,0,0,1,1.13-1.57l.58-.24A1.57,1.57,0,0,1,35,37a1.68,1.68,0,0,1,1.19.47l.81.81,1.17-1.17-.81-.81A1.73,1.73,0,0,1,37,34.37l.24-.57a1.7,1.7,0,0,1,1.55-1.08H40V31.07H38.83a1.71,1.71,0,0,1-1.57-1.14L37,29.36a1.69,1.69,0,0,1,.33-1.85l.81-.82L37,25.52l-.81.81a1.74,1.74,0,0,1-1.91.31l-.57-.23a1.71,1.71,0,0,1-1.08-1.55V23.71H31v1.15a1.73,1.73,0,0,1-1.14,1.57l-.57.24a1.57,1.57,0,0,1-.66.14,1.71,1.71,0,0,1-1.2-.48l-.8-.81-1.17,1.17.81.81a1.71,1.71,0,0,1,.3,1.91l-.23.58a1.7,1.7,0,0,1-1.55,1.08H23.62v1.65h1.14a1.72,1.72,0,0,1,1.57,1.13l.24.58a1.69,1.69,0,0,1-.33,1.85l-.81.81,1.17,1.17.8-.81a1.76,1.76,0,0,1,1.92-.31l.57.24A1.68,1.68,0,0,1,31,38.93v1.14Zm.82-4.5a3.68,3.68,0,1,1,3.69-3.68,3.69,3.69,0,0,1-3.69,3.68Zm0-5.68a2,2,0,1,0,2,2,2,2,0,0,0-2-2Z"/></svg>