<svg xmlns="http://www.w3.org/2000/svg" viewBox="0 0 24.78 22"><defs><style>.cls-1{fill:#171c8f;}</style></defs><title>select_date_over</title><g id="Layer_2" data-name="Layer 2"><g id="Layer_1-2" data-name="Layer 1"><path class="cls-1" d="M23.68,1.83H20.57V1.1a1.1,1.1,0,1,0-2.2,0v.73H6.54V1.1a1.1,1.1,0,1,0-2.2,0v.73H1.1A1.1,1.1,0,0,0,0,2.93v18A1.1,1.1,0,0,0,1.1,22H23.68a1.1,1.1,0,0,0,1.1-1.1v-18A1.1,1.1,0,0,0,23.68,1.83ZM4.34,4v.74a1.1,1.1,0,1,0,2.2,0V4H18.37v.74a1.1,1.1,0,1,0,2.2,0V4h2v4.3H2.2V4ZM2.2,19.8V9.43H22.58V19.8Z"/><rect class="cls-1" x="4.11" y="11.66" width="2.13" height="2.13"/><rect class="cls-1" x="7.81" y="11.66" width="2.13" height="2.13"/><rect class="cls-1" x="11.5" y="11.66" width="2.14" height="2.13"/><rect class="cls-1" x="15.19" y="11.66" width="2.14" height="2.13"/><rect class="cls-1" x="18.89" y="11.66" width="2.13" height="2.13"/><rect class="cls-1" x="4.11" y="15.09" width="2.13" height="2.13"/><rect class="cls-1" x="7.81" y="15.09" width="2.13" height="2.13"/><rect class="cls-1" x="11.5" y="15.09" width="2.14" height="2.13"/><rect class="cls-1" x="15.19" y="15.09" width="2.14" height="2.13"/><rect class="cls-1" x="18.89" y="15.09" width="2.13" height="2.13"/></g></g></svg>