<svg id="Layer_1" data-name="Layer 1" xmlns="http://www.w3.org/2000/svg" viewBox="0 0 138 61.5"><defs><style>.cls-1{fill:#025ee1;}.cls-2{fill:#fff;}</style></defs><title>icon_app_tas</title><path class="cls-1" d="M110.59,49.27a19.89,19.89,0,1,1,19.89-19.88,19.9,19.9,0,0,1-19.89,19.88Zm0-36.36a16.48,16.48,0,1,0,16.48,16.48,16.5,16.5,0,0,0-16.48-16.48Z"/><path class="cls-1" d="M110.59,31.09a1.7,1.7,0,0,1-1.7-1.7V17.09a1.71,1.71,0,1,1,3.41,0v12.3a1.7,1.7,0,0,1-1.71,1.7Z"/><path class="cls-1" d="M110.59,14a1.7,1.7,0,0,1-1.7-1.7V11.2a1.71,1.71,0,0,1,3.41,0v1.11a1.7,1.7,0,0,1-1.71,1.7Z"/><path class="cls-1" d="M110.59,49.27a1.7,1.7,0,0,1-1.7-1.7V46.46a1.71,1.71,0,0,1,3.41,0v1.11a1.7,1.7,0,0,1-1.71,1.7Z"/><path class="cls-1" d="M128.77,31.09h-1.1a1.71,1.71,0,1,1,0-3.41h1.1a1.71,1.71,0,1,1,0,3.41Z"/><path class="cls-1" d="M93.52,31.09H92.41a1.71,1.71,0,0,1,0-3.41h1.11a1.71,1.71,0,0,1,0,3.41Z"/><path class="cls-1" d="M118.35,16.81a1,1,0,0,1-.43-.11.85.85,0,0,1-.31-1.17l.5-.87a.85.85,0,0,1,1.16-.31.84.84,0,0,1,.31,1.16l-.5.87a.82.82,0,0,1-.73.43Z"/><path class="cls-1" d="M102.34,44.54a.91.91,0,0,1-.42-.11.86.86,0,0,1-.32-1.17l.5-.87a.84.84,0,0,1,1.16-.31.85.85,0,0,1,.32,1.16l-.5.87a.87.87,0,0,1-.74.43Z"/><path class="cls-1" d="M124.89,38.49a.91.91,0,0,1-.42-.11l-.87-.5a.84.84,0,0,1-.31-1.16.85.85,0,0,1,1.16-.32l.87.5a.85.85,0,0,1-.43,1.59Z"/><path class="cls-1" d="M97.17,22.48a.78.78,0,0,1-.42-.11l-.88-.5a.84.84,0,0,1-.31-1.16.85.85,0,0,1,1.16-.32l.87.5a.85.85,0,0,1-.42,1.59Z"/><path class="cls-1" d="M102.84,16.81a.85.85,0,0,1-.74-.43l-.5-.87a.85.85,0,0,1,1.48-.85l.5.87a.86.86,0,0,1-.31,1.17,1,1,0,0,1-.43.11Z"/><path class="cls-1" d="M118.85,44.54a.84.84,0,0,1-.73-.43l-.51-.87a.85.85,0,0,1,1.48-.85l.5.87a.84.84,0,0,1-.31,1.16.82.82,0,0,1-.43.12Z"/><path class="cls-1" d="M96.3,38.49a.83.83,0,0,1-.74-.43.84.84,0,0,1,.32-1.16l.87-.5a.85.85,0,0,1,.84,1.48l-.87.5a.91.91,0,0,1-.42.11Z"/><path class="cls-1" d="M124,22.48a.85.85,0,0,1-.43-1.59l.86-.5a.87.87,0,0,1,1.17.31.85.85,0,0,1-.31,1.17l-.87.5a.8.8,0,0,1-.42.11Z"/><path class="cls-1" d="M105.44,36.24a1.71,1.71,0,0,1-1.2-2.91l5-4.95a1.7,1.7,0,0,1,2.41,2.41l-4.95,5a1.71,1.71,0,0,1-1.21.5Z"/><path class="cls-1" d="M41.19,14.68H27.29v34.8H21.57V14.68H7.91v-5H41.19Z"/><path class="cls-1" d="M73.3,49.48H67.46L62.14,37.75H45.21l-5,11.73H34.35L51.46,9.42h4ZM59.81,32.61,53.38,18.18l-6,14.43Z"/><path class="cls-1" d="M84.2,50.51a18.28,18.28,0,0,1-11-3.78.52.52,0,0,1-.2-.4V39.09a.51.51,0,0,1,.34-.47.45.45,0,0,1,.16,0,.49.49,0,0,1,.39.19c1.12,1.39,4.53,5.65,10.36,5.65,2.76,0,5.69-1.67,5.69-4.76s-3.14-5.35-5-6.46c-6.28-3.77-8.17-4.91-10-7.24a9.7,9.7,0,0,1-2.09-6.27c0-6.52,5-11.07,12.24-11.07a17.12,17.12,0,0,1,9.44,2.89.5.5,0,0,1,.22.42v6.48a.51.51,0,0,1-.3.46.65.65,0,0,1-.2,0,.49.49,0,0,1-.34-.14,12.83,12.83,0,0,0-9-4c-3.36,0-5.81,1.73-5.81,4.11,0,3,1.85,4.22,9.68,8.8A17.23,17.23,0,0,1,94,32.25a10.94,10.94,0,0,1,2.26,6.9C96.26,45.84,91.3,50.51,84.2,50.51Z"/><path class="cls-2" d="M85,9.13a16.58,16.58,0,0,1,9.16,2.81v6.48c-3.38-3.27-6.65-4.15-9.34-4.15-3.91,0-6.31,2.1-6.31,4.61,0,3.39,2.34,4.79,9.93,9.23a16.94,16.94,0,0,1,5.14,4.44,10.47,10.47,0,0,1,2.16,6.6C95.76,45.4,91.26,50,84.2,50a17.84,17.84,0,0,1-10.75-3.68V39.09c1.17,1.46,4.73,5.84,10.75,5.84,3,0,6.19-1.87,6.19-5.26S87,33.89,85.13,32.78c-6.3-3.79-8.11-4.9-9.87-7.12a9.3,9.3,0,0,1-2-6c0-6,4.55-10.57,11.74-10.57m0-1c-7.5,0-12.74,4.76-12.74,11.57a10.35,10.35,0,0,0,2.19,6.57c1.9,2.41,4,3.66,10.15,7.37,1.78,1.06,4.77,3.25,4.77,6s-2.68,4.26-5.19,4.26c-5.59,0-8.88-4.11-10-5.47a1,1,0,0,0-.78-.37,1,1,0,0,0-.33.06,1,1,0,0,0-.67.94v7.24a1,1,0,0,0,.4.8A18.73,18.73,0,0,0,84.2,51c7.39,0,12.56-4.88,12.56-11.86a11.49,11.49,0,0,0-2.37-7.22A17.7,17.7,0,0,0,89,27.25c-7.64-4.46-9.44-5.62-9.44-8.37,0-2.09,2.23-3.61,5.31-3.61a12.33,12.33,0,0,1,8.65,3.87,1,1,0,0,0,1.69-.72V11.94a1,1,0,0,0-.45-.84,17.62,17.62,0,0,0-9.71-3Z"/></svg>