<?xml version="1.0" encoding="utf-8"?>
<!-- Generator: Adobe Illustrator 22.0.1, SVG Export Plug-In . SVG Version: 6.00 Build 0)  -->
<svg version="1.1" id="Layer_1" xmlns="http://www.w3.org/2000/svg" xmlns:xlink="http://www.w3.org/1999/xlink" x="0px" y="0px"
	 viewBox="0 0 50 50" style="enable-background:new 0 0 50 50;" xml:space="preserve">
<style type="text/css">
	.st0{fill:#0F7AB3;}
	.st1{fill:#FFFFFF;}
</style>
<title>icon_ft_pendingrequest</title>
<g>
	<path class="st0" d="M37.5,35.1H9c-2,0-3.7-1.6-3.7-3.7l0,0V12.8c0-2,1.7-3.7,3.7-3.7h28.5c2,0,3.7,1.7,3.7,3.7v18.7
		C41.1,33.5,39.5,35.1,37.5,35.1z M9,12.2c-0.3,0-0.6,0.3-0.6,0.6c0,0,0,0,0,0v18.7C8.4,31.8,8.6,32,9,32c0,0,0,0,0,0h28.5
		c0.3,0,0.6-0.3,0.6-0.6l0,0V12.8c0-0.3-0.3-0.6-0.6-0.6L9,12.2z"/>
	<path class="st0" d="M37.5,34.4H9c-1.2,0-2.3-0.7-2.7-1.9c-0.1-0.3,0-0.6,0.2-0.9l11.1-10c0.3-0.3,0.8-0.3,1.1,0.1c0,0,0,0,0,0
		c0.3,0.3,0.3,0.8,0,1.1c0,0,0,0,0,0l0,0L8,32.4c0.3,0.3,0.6,0.4,1,0.4h28.5c0.4,0,0.7-0.2,1-0.4l-10.8-9.6
		c-0.3-0.3-0.4-0.8-0.1-1.1l0,0c0.3-0.3,0.8-0.4,1.1-0.1l0,0l11.3,10c0.2,0.2,0.3,0.6,0.2,0.9C39.7,33.6,38.7,34.4,37.5,34.4z"/>
	<path class="st0" d="M23.2,27.3c-0.2,0-0.4-0.1-0.5-0.2L6.4,12.7c-0.2-0.2-0.3-0.6-0.2-0.9C6.7,10.7,7.7,9.9,9,9.9h28.5
		c1.2,0,2.3,0.8,2.7,1.9c0.1,0.3,0,0.6-0.2,0.9L23.7,27.1C23.6,27.2,23.4,27.3,23.2,27.3z M8,11.9l15.2,13.6l15.2-13.6
		c-0.3-0.3-0.6-0.4-1-0.4H9C8.6,11.5,8.2,11.6,8,11.9z"/>
</g>
<polygon class="st0" points="29.5,22.8 26.5,22.8 26.5,25.8 29.5,25.8 29.5,22.8 "/>
<polygon class="st0" points="34.7,22.8 31.7,22.8 31.7,25.8 34.7,25.8 34.7,22.8 "/>
<polygon class="st0" points="24.3,27.6 21.3,27.6 21.3,30.6 24.3,30.6 24.3,27.6 "/>
<polygon class="st0" points="29.5,27.6 26.5,27.6 26.5,30.6 29.5,30.6 29.5,27.6 "/>
<polygon class="st0" points="34.7,27.6 31.7,27.6 31.7,30.6 34.7,30.6 34.7,27.6 "/>
<circle class="st1" cx="31.5" cy="30.3" r="11.3"/>
<path class="st0" d="M31.5,40.4c-5.6,0-10.1-4.5-10.1-10.1s4.5-10.1,10.1-10.1c5.6,0,10.1,4.5,10.1,10.1
	C41.6,35.8,37.1,40.4,31.5,40.4z M31.5,21.9c-4.6,0-8.4,3.8-8.4,8.4s3.8,8.4,8.4,8.4s8.4-3.8,8.4-8.4c0,0,0,0,0,0
	C39.9,25.6,36.2,21.9,31.5,21.9z"/>
<path class="st0" d="M31.5,31.1c-0.5,0-0.9-0.4-0.9-0.9v0V24c0-0.5,0.4-0.9,0.9-0.9c0.5,0,0.9,0.4,0.9,0.9v6.3
	C32.4,30.7,32,31.1,31.5,31.1z"/>
<path class="st0" d="M31.5,22.4c-0.5,0-0.9-0.4-0.9-0.9v0V21c0-0.5,0.4-0.9,0.9-0.9c0.5,0,0.9,0.4,0.9,0.9v0.6
	C32.4,22,32,22.4,31.5,22.4L31.5,22.4z"/>
<path class="st0" d="M31.5,40.4c-0.5,0-0.9-0.4-0.9-0.9v-0.6c0-0.5,0.4-0.9,0.9-0.9c0.5,0,0.9,0.4,0.9,0.9v0.6
	C32.4,40,32,40.4,31.5,40.4z"/>
<path class="st0" d="M40.8,31.1h-0.6c-0.5,0-0.9-0.4-0.9-0.9c0-0.5,0.4-0.9,0.9-0.9c0,0,0,0,0,0h0.6c0.5,0,0.9,0.4,0.9,0.9
	C41.6,30.7,41.3,31.1,40.8,31.1z"/>
<path class="st0" d="M22.9,31.1h-0.6c-0.5,0-0.9-0.4-0.9-0.9c0-0.5,0.4-0.9,0.9-0.9h0.6c0.5,0,0.9,0.4,0.9,0.9
	C23.7,30.7,23.3,31.1,22.9,31.1C22.9,31.1,22.9,31.1,22.9,31.1z"/>
<path class="st0" d="M35.5,23.9c-0.1,0-0.1,0-0.2-0.1c-0.2-0.1-0.3-0.4-0.2-0.6c0,0,0,0,0,0l0.3-0.4c0.1-0.2,0.4-0.3,0.6-0.2
	s0.3,0.4,0.2,0.6l0,0l-0.3,0.4C35.8,23.8,35.6,23.9,35.5,23.9z"/>
<path class="st0" d="M27.3,38c-0.1,0-0.1,0-0.2,0c-0.2-0.1-0.3-0.4-0.2-0.6l0.3-0.4c0.1-0.2,0.4-0.3,0.6-0.2s0.3,0.4,0.2,0.6l0,0
	l-0.3,0.5C27.6,37.9,27.5,38,27.3,38z"/>
<path class="st0" d="M38.8,34.9c-0.1,0-0.2,0-0.2-0.1l-0.4-0.3c-0.2-0.1-0.3-0.4-0.2-0.6c0.1-0.2,0.4-0.3,0.6-0.2l0,0l0.4,0.3
	c0.2,0.1,0.3,0.4,0.2,0.6c0,0,0,0,0,0C39.1,34.8,39,34.9,38.8,34.9z"/>
<path class="st0" d="M24.7,26.7c-0.1,0-0.2,0-0.2-0.1L24,26.4c-0.2-0.1-0.3-0.4-0.2-0.6s0.4-0.3,0.6-0.2l0,0l0.4,0.3
	c0.2,0.1,0.3,0.4,0.2,0.6c0,0,0,0,0,0C25,26.7,24.9,26.7,24.7,26.7z"/>
<path class="st0" d="M27.6,23.9c-0.2,0-0.3-0.1-0.4-0.2L27,23.2c-0.1-0.2,0-0.5,0.2-0.6s0.5,0,0.6,0.2l0,0l0.3,0.4
	c0.1,0.2,0,0.5-0.2,0.6C27.8,23.8,27.7,23.9,27.6,23.9L27.6,23.9z"/>
<path class="st0" d="M35.7,38c-0.2,0-0.3-0.1-0.4-0.2l-0.3-0.4c-0.1-0.2,0-0.5,0.2-0.6c0.2-0.1,0.5,0,0.6,0.2c0,0,0,0,0,0l0.3,0.4
	c0.1,0.2,0,0.5-0.2,0.6C35.9,38,35.8,38,35.7,38z"/>
<path class="st0" d="M24.3,34.9c-0.2,0-0.4-0.2-0.4-0.4c0-0.2,0.1-0.3,0.2-0.4l0.4-0.3c0.2-0.1,0.5,0,0.6,0.2s0,0.5-0.2,0.6
	l-0.4,0.3C24.4,34.9,24.3,34.9,24.3,34.9z"/>
<path class="st0" d="M38.4,26.7c-0.2,0-0.4-0.2-0.4-0.4c0-0.2,0.1-0.3,0.2-0.4l0.4-0.3c0.2-0.1,0.5,0,0.6,0.2c0,0,0,0,0,0
	c0.1,0.2,0.1,0.5-0.1,0.6c0,0,0,0,0,0l-0.4,0.3C38.5,26.7,38.4,26.7,38.4,26.7z"/>
<path class="st0" d="M28.9,33.7c-0.5,0-0.9-0.4-0.9-0.9c0-0.2,0.1-0.5,0.3-0.6l2.5-2.5c0.3-0.3,0.9-0.3,1.2,0c0,0,0,0,0,0
	c0.3,0.3,0.3,0.9,0,1.2c0,0,0,0,0,0l-2.5,2.5C29.3,33.7,29.1,33.8,28.9,33.7L28.9,33.7z"/>
</svg>
