<svg id="Layer_1" data-name="Layer 1" xmlns="http://www.w3.org/2000/svg" viewBox="0 0 50 50"><defs><style>.cls-1{fill:#0f7ab3;}</style></defs><title>icon_ft_dashboard</title><path class="cls-1" d="M19.22,7.5a1.36,1.36,0,0,1,1.34,1.35v11H9.6a1.36,1.36,0,0,1-1.35-1.34V8.85A1.34,1.34,0,0,1,9.6,7.5h9.62m0-4H9.6A5.34,5.34,0,0,0,4.25,8.85v9.62A5.36,5.36,0,0,0,9.6,23.81h15v-15A5.36,5.36,0,0,0,19.22,3.5Z"/><path class="cls-1" d="M41.14,7.5a1.34,1.34,0,0,1,1.34,1.35v9.62a1.35,1.35,0,0,1-1.34,1.34h-11v-11A1.36,1.36,0,0,1,31.51,7.5h9.63m0-4H31.51a5.36,5.36,0,0,0-5.34,5.35v15h15a5.35,5.35,0,0,0,5.34-5.34V8.85A5.34,5.34,0,0,0,41.14,3.5Z"/><path class="cls-1" d="M20.56,29.31v11a1.35,1.35,0,0,1-1.34,1.34H9.6a1.34,1.34,0,0,1-1.35-1.34V30.66A1.37,1.37,0,0,1,9.6,29.31h11m4-4H9.6a5.37,5.37,0,0,0-5.35,5.35v9.62A5.34,5.34,0,0,0,9.6,45.62h9.62a5.35,5.35,0,0,0,5.34-5.34v-15Z"/><path class="cls-1" d="M41.14,29.31a1.36,1.36,0,0,1,1.34,1.35v9.62a1.34,1.34,0,0,1-1.34,1.34H31.51a1.35,1.35,0,0,1-1.34-1.34v-11h11m0-4h-15v15a5.35,5.35,0,0,0,5.34,5.34h9.63a5.34,5.34,0,0,0,5.34-5.34V30.66a5.36,5.36,0,0,0-5.34-5.35Z"/></svg>