<svg id="Layer_1" data-name="Layer 1" xmlns="http://www.w3.org/2000/svg" viewBox="0 0 50 50"><defs><style>.cls-1{fill:#0f7ab3;}.cls-2{fill:#fff;}</style></defs><title>icon_ft_tellus</title><path class="cls-1" d="M13.51,37.76a7.38,7.38,0,0,1-1.2-.07A1.53,1.53,0,0,1,11,36.57a1.42,1.42,0,0,1,.75-1.5,8.49,8.49,0,0,0,3-2.4C10,30.35,7,26.09,7,21.52c0-7.18,7.26-13,16.09-13s16.09,5.84,16.09,13-7.26,13-16.09,13h-.6a13,13,0,0,1-9,3.21Zm9.66-26.42c-7.34,0-13.33,4.57-13.33,10.26,0,3.89,3,7.48,7.56,9.2a1.47,1.47,0,0,1,.83.83,1.18,1.18,0,0,1-.08,1.12l-.07.15a2,2,0,0,1-.3.52,6.9,6.9,0,0,1-.83,1.2,9.48,9.48,0,0,0,4.12-2.39,1.47,1.47,0,0,1,1.05-.45c.37,0,.67.07,1.05.07,7.33,0,13.32-4.56,13.32-10.25s-6-10.26-13.32-10.26Z"/><path class="cls-1" d="M17,20a2,2,0,1,0,2,2,2,2,0,0,0-2-2Z"/><path class="cls-1" d="M23.17,20a2,2,0,1,0,2,2,2,2,0,0,0-2-2Z"/><path class="cls-1" d="M29.38,20a2,2,0,1,0,2,2,2,2,0,0,0-2-2Z"/><path class="cls-2" d="M34.09,20.92,24.21,38a1.14,1.14,0,0,0,1,1.72H45.25a1.13,1.13,0,0,0,1-1.72L36.11,20.92A1.2,1.2,0,0,0,34.09,20.92Z"/><path class="cls-1" d="M34.62,32l-.15-2.09c0-.38-.08-.68-.08-.9a.85.85,0,0,1,.23-.6.68.68,0,0,1,.52-.23.52.52,0,0,1,.53.3,2,2,0,0,1,.15.75v.6L35.59,32a1.33,1.33,0,0,1-.15.6.31.31,0,0,1-.3.22c-.15,0-.3-.07-.3-.22C34.69,32.53,34.62,32.3,34.62,32Zm.45,2.92a1,1,0,0,1-.45-.15.56.56,0,0,1,0-.9.64.64,0,0,1,.45-.22.54.54,0,0,1,.45.22.64.64,0,0,1,.22.45.44.44,0,0,1-.22.45A.63.63,0,0,1,35.07,34.92Z"/><path class="cls-1" d="M43.08,37.91H27.28a.62.62,0,0,1-.52-.3.55.55,0,0,1,0-.67l7.93-13.7a.71.71,0,0,1,1.13,0l7.93,13.7a.55.55,0,0,1,0,.67,1.37,1.37,0,0,1-.67.3ZM28.33,36.64H42L35.14,24.89,28.33,36.64Z"/></svg>