<svg id="Layer_1" data-name="Layer 1" xmlns="http://www.w3.org/2000/svg" viewBox="0 0 50 50"><defs><style>.cls-1{fill:#0f7ab3;}</style></defs><title>icon_ft_reportit</title><path class="cls-1" d="M47.7,20.68,43.65,14.6a1.65,1.65,0,0,0-1.06-.71,1.67,1.67,0,0,0-1.25.26l-1.11.78V7.2a1.68,1.68,0,0,0-1.66-1.7H33.45a3.49,3.49,0,0,0-3-1.7H19.26a3.52,3.52,0,0,0-3,1.7H11.16A1.69,1.69,0,0,0,9.49,7.2V43.3A1.69,1.69,0,0,0,11.16,45H38.57a1.68,1.68,0,0,0,1.66-1.7V28l7-4.91a1.7,1.7,0,0,0,.43-2.36Zm-7.61-.17L26,30.36a.86.86,0,0,0-.22,1.18.82.82,0,0,0,.69.37.84.84,0,0,0,.47-.15L41,21.91l.62.94L27.08,33l-1.5-.2a2.64,2.64,0,0,0-.38-.92,2.71,2.71,0,0,0-.67-.68l.36-1.48L39.47,19.57ZM36.91,41.6H12.82V8.9h3.23A3.51,3.51,0,0,0,19.26,11H30.47A3.53,3.53,0,0,0,33.68,8.9h3.23v8.35L22.5,27.3a1.63,1.63,0,0,0-.67,1l-1.32,5.38A1.74,1.74,0,0,0,20.74,35a1.72,1.72,0,0,0,1.17.73l5.37.7h.21a1.66,1.66,0,0,0,.94-.29l8.48-5.92ZM43,21.89l-2.19-3.27,1-.7L44,21.19Z"/></svg>