<svg xmlns="http://www.w3.org/2000/svg" viewBox="0 0 598.18 171.01"><defs><style>.cls-1{fill:#fff;}.cls-2{fill:#d3d9ef;}</style></defs><g id="Layer_2" data-name="Layer 2"><g id="Layer_1-2" data-name="Layer 1"><g id="Layer_1-2-2" data-name="Layer 1-2"><path class="cls-1" d="M189.3,140.84v-15l-10.18-.66a28.56,28.56,0,0,0-2.28-5.48l6.74-7.67L173,101.35l-7.69,6.74a27.9,27.9,0,0,0-5.48-2.27l-.66-10.2h-15l-.66,10.2a28.07,28.07,0,0,0-5.5,2.27l-7.66-6.74L119.63,112l6.75,7.67a28.56,28.56,0,0,0-2.28,5.48l-10.19.66v15l10.19.66a28.65,28.65,0,0,0,2.28,5.49l-6.75,7.66,10.64,10.65,7.66-6.74a28.66,28.66,0,0,0,5.5,2.26l.66,10.19h15l.66-10.19a28.4,28.4,0,0,0,5.47-2.26l7.67,6.74,10.64-10.64L176.83,147a29.58,29.58,0,0,0,2.28-5.49Zm-36.68,6.46a13.49,13.49,0,1,1,13.48-13.49h0A13.49,13.49,0,0,1,152.62,147.3Z"/><path class="cls-1" d="M212.24,55.36V36.94l-12.47-.8A34.3,34.3,0,0,0,197,29.41L205.25,20l-13-13-9.39,8.25a34.87,34.87,0,0,0-6.72-2.78L175.3,0H156.88l-.8,12.48a34.7,34.7,0,0,0-6.73,2.78L140,7l-13,13,8.24,9.38a36.56,36.56,0,0,0-2.78,6.73l-12.47.8V55.36l12.47.8a34.61,34.61,0,0,0,2.78,6.72l-8.24,9.39,13,13,9.39-8.25a34.52,34.52,0,0,0,6.71,2.78l.82,12.48h18.4l.82-12.48a34.87,34.87,0,0,0,6.72-2.78l9.39,8.25,13-13L197,62.88a34.61,34.61,0,0,0,2.78-6.72ZM167.32,63.3a16.52,16.52,0,1,1,16.52-16.51h0a16.51,16.51,0,0,1-16.51,16.5Z"/><path class="cls-1" d="M124.86,91.86V67L108,65.87a46.42,46.42,0,0,0-3.79-9.09l11.16-12.7L97.77,26.45,85,37.61a48.1,48.1,0,0,0-9.09-3.76L74.85,17H50L48.88,33.85a48.47,48.47,0,0,0-9.1,3.76L27.09,26.45,9.47,44.08l11.16,12.7a47.83,47.83,0,0,0-3.76,9.09L0,67V91.86L16.87,93a47.92,47.92,0,0,0,3.76,9.1L9.47,114.75l17.62,17.61L39.78,121.2a47.17,47.17,0,0,0,9.1,3.76L50,141.84H74.88L76,125A46.56,46.56,0,0,0,85,121.2l12.7,11.16,17.65-17.61-11.19-12.7A47.92,47.92,0,0,0,108,93ZM63.23,48.49a12.95,12.95,0,1,1-12.93,13v0A12.93,12.93,0,0,1,63.22,48.49ZM89.4,106H37.12V96.45A17.25,17.25,0,0,1,54.26,79.24h18A17.25,17.25,0,0,1,89.4,96.43Z"/></g><path class="cls-1" d="M254.9,30.84h9.25l17.79,47.29H271.81l-4.19-11.59H251.23L247,78.13h-9.86Zm9.85,28-5.32-14.72L254,58.81Z"/><path class="cls-1" d="M294.86,45.16V63.74c0,5.66,2.2,7.93,5.79,7.93s5.87-2.27,5.87-7.93V45.16h9.05v33h-9.05v-4c-2.14,3.53-5.73,5-9.73,5-6.46,0-11-3.93-11-13.46V45.16Z"/><path class="cls-1" d="M325.3,45.16V35.63h9.06v9.53h10.05v7.46H334.36V65.07c0,4.93,3,6.06,6.92,6.06a17.45,17.45,0,0,0,3.13-.26v7.59a37.27,37.27,0,0,1-4.59.33c-9.19,0-14.52-3.93-14.52-13.32V52.62h-4.47V45.16Z"/><path class="cls-1" d="M365.39,44.16c10.06,0,17.12,6.59,17.12,17.45s-7.13,17.52-17.12,17.52-17.18-6.73-17.18-17.52C348.21,50.62,355.34,44.16,365.39,44.16Zm0,27.64c4.33,0,7.93-3.13,7.93-10.19s-3.53-10.19-7.93-10.19-7.92,3.13-7.92,10.19S361.06,71.8,365.39,71.8Z"/><path class="cls-1" d="M388.84,45.16h9.06v4.26c1.93-3.53,5.72-5.26,10.05-5.26,4.53,0,8.26,1.86,10,6.26,2.47-4.53,7.4-6.26,11.39-6.26,6.46,0,11.33,3.93,11.33,13.45V78.13H431.6V59.54c0-5.66-2.47-7.92-6.13-7.92s-6.19,2.26-6.19,7.92V78.13h-9.06V59.54c0-5.66-2.53-7.92-6.13-7.92s-6.19,2.26-6.19,7.92V78.13h-9.06Z"/><path class="cls-1" d="M449,54.22v-7.8a31.78,31.78,0,0,1,11.93-2.26c8.32,0,15.78,3.2,15.78,13.85V78.13h-8.46V74c-2,3.33-5.59,5.13-9.86,5.13-7.46,0-12.38-4.53-12.38-10.66,0-8.86,11.12-11.19,19.38-11.19.8,0,1.6,0,2.33.07v-.2c0-4.13-3.93-5.4-8.06-5.4A24.32,24.32,0,0,0,449,54.22Zm11.73,18c3.26,0,7.39-2.07,7.39-7.86V63.27c-.93-.06-2-.13-3.07-.13-4.52,0-10,.93-10,4.8C455,70.6,457.38,72.27,460.71,72.27Z"/><path class="cls-1" d="M485.75,45.16V35.63h9.06v9.53h10.05v7.46H494.81V65.07c0,4.93,3,6.06,6.92,6.06a17.45,17.45,0,0,0,3.13-.26v7.59a37.14,37.14,0,0,1-4.59.33c-9.19,0-14.52-3.93-14.52-13.32V52.62h-4.46V45.16Z"/><path class="cls-1" d="M521.58,34.7c0,2.73-2.2,5-5.46,5s-5.53-2.27-5.53-5,2.2-5,5.53-5S521.58,32,521.58,34.7Zm-10,10.46h9.06v33h-9.06Z"/><path class="cls-1" d="M544.09,44.16c10.06,0,17.12,6.59,17.12,17.45s-7.13,17.52-17.12,17.52-17.18-6.73-17.18-17.52C526.91,50.62,534,44.16,544.09,44.16Zm0,27.64c4.33,0,7.93-3.13,7.93-10.19s-3.53-10.19-7.93-10.19-7.92,3.13-7.92,10.19S539.76,71.8,544.09,71.8Z"/><path class="cls-1" d="M576.6,49.42c1.79-3.33,5.46-5.26,10.12-5.26,6.46,0,11.46,3.93,11.46,13.45V78.13h-9.13V59.54c0-5.66-2.6-7.92-6.19-7.92s-6.26,2.26-6.26,7.92V78.13h-9.06v-33h9.06Z"/><path class="cls-2" d="M253.75,136.76c6.68,0,11.44-2.69,11.44-7.19,0-3.86-2.38-6.36-8.81-7.9l-3.46-.84c-7.39-1.8-12.47-6-12.47-13.36,0-7.77,7.84-12.4,17.09-12.4a34.37,34.37,0,0,1,11.24,1.86V103a33.78,33.78,0,0,0-11.43-2.12c-6.43,0-10.09,2.63-10.09,6.55s2.89,6.17,8,7.39l3.4.83c8.74,2.12,13.3,5.85,13.3,13.24,0,8.67-7.71,13.68-18.12,13.68a38.78,38.78,0,0,1-13.36-2.44V134A32,32,0,0,0,253.75,136.76Z"/><path class="cls-2" d="M281.63,110.1l10.15,23.45,10-23.45h6.74l-19,44.07h-6.68l5.52-12.78L274.75,110.1Z"/><path class="cls-2" d="M321.65,137.15c3.27,0,7.77-.71,7.77-4.05,0-2.63-2.31-3.53-6.3-4.43L320.3,128c-6-1.35-9.51-4.56-9.51-9.9,0-5.59,5.65-8.93,13.36-8.93a27.89,27.89,0,0,1,8.74,1.29v5.65a25,25,0,0,0-8.8-1.54c-3.73,0-7.2.9-7.2,3.6,0,2.31,2,3.34,5.27,4.11l3,.71c7.45,1.6,10.28,4.81,10.28,9.76,0,6.42-6.1,9.83-13.3,9.83a29.84,29.84,0,0,1-11.11-2.12v-5.65A26.62,26.62,0,0,0,321.65,137.15Z"/><path class="cls-2" d="M343,110.1v-8.8h6.36v8.8H359.8v5.46H349.33V129.7c0,6.16,3.47,7.06,7.52,7.06a15.89,15.89,0,0,0,2.95-.25V142a25.93,25.93,0,0,1-3.79.25c-8.16,0-13-3.27-13-12.27V115.56h-4.3V110.1Z"/><path class="cls-2" d="M370.08,126.87c.26,7.2,5.65,10.28,11.76,10.28a21.75,21.75,0,0,0,10.79-2.64v5.72a28.79,28.79,0,0,1-11.5,2.38c-10,0-17.54-5.85-17.54-16.77,0-10.66,7-16.64,15.74-16.64s14.84,5.85,14.78,17.67Zm9.12-12.59c-4.17,0-8.09,2.5-9,7.9h17.47C387,116.85,383.7,114.28,379.2,114.28Z"/><path class="cls-2" d="M400.72,110.1h6.36v4.31c1.86-3.34,5.46-5.21,10-5.21s8.42,1.87,10.28,6.24c2.25-4.37,6.94-6.24,11.3-6.24,6.43,0,11.5,3.79,11.5,13.11v19.34h-6.36V123.47c0-5.85-2.89-8.87-7.51-8.87s-7.71,3-7.71,8.87v18.18h-6.36V123.47c0-5.85-2.89-8.87-7.52-8.87s-7.64,3-7.64,8.87v18.18h-6.36Z"/></g></g></svg>