<svg xmlns="http://www.w3.org/2000/svg" viewBox="0 0 725.35 260.87"><defs><style>.cls-1{fill:#e41814;}</style></defs><g id="Layer_2" data-name="Layer 2"><g id="Layer_1-2" data-name="Layer 1"><path class="cls-1" d="M408.43,97.75a9.41,9.41,0,0,0,2-6,10.82,10.82,0,0,0-1.81-6.18c-2.35-3.59-5.91-3.92-11.08-4H374.77V102.1h19.39C399.05,102.1,405,102.1,408.43,97.75Z"/><path class="cls-1" d="M575,130.17H532l-9,19.54H503.36l40.08-80h22.19l37.8,77.58c42.61-4.54,77.19-7.74,121.92-11.76C666.06,82.46,606,38.67,539.85,0,487.38,19.62,431.47,43.37,374,69.73h22.83c6.76.12,14.5.27,21.6,6.43,2.83,2.36,7.56,7.77,7.56,17.29,0,10.91-6.29,18.6-17.06,21.37,5.92,9.51,17,28.78,20.45,34.89H407.74c-3.79-7.3-16.37-31.69-17.9-33.77H372.53v33.77H354.38V78.8C236.7,133.61,113.39,198.53,0,260.87c229.43-63.94,396.71-91.2,583.89-111.25m-66.84-66.1h-31.2v66.19H467.43V83.52H436.35V69.73h80.7Z"/><polygon class="cls-1" points="540.87 115.22 570.91 115.22 556.63 83.36 540.87 115.22"/></g></g></svg>