<svg xmlns="http://www.w3.org/2000/svg" viewBox="0 0 500.8 142.8"><defs><style>.cls-1{fill:#171c8f;}.cls-2{fill:#53565a;}</style></defs><title>logo_automaction</title><g id="Layer_2" data-name="Layer 2"><g id="Layer_1-2" data-name="Layer 1"><path class="cls-1" d="M158.07,117.61V105.05l-8.5-.55a24.28,24.28,0,0,0-1.9-4.58l5.63-6.4-8.88-8.89L138,90.26a23.64,23.64,0,0,0-4.58-1.9l-.55-8.51H120.32l-.55,8.51a24,24,0,0,0-4.59,1.9l-6.4-5.63L99.9,93.52l5.63,6.4a23.64,23.64,0,0,0-1.9,4.58l-8.51.55v12.56l8.51.55a23.64,23.64,0,0,0,1.9,4.58l-5.63,6.4,8.88,8.89,6.4-5.63a24,24,0,0,0,4.59,1.89l.55,8.51h12.56l.55-8.51A23.61,23.61,0,0,0,138,132.4l6.4,5.63,8.89-8.88-5.63-6.41a24.28,24.28,0,0,0,1.9-4.58ZM127.44,123a11.26,11.26,0,1,1,11.26-11.26A11.26,11.26,0,0,1,127.44,123Z"/><path class="cls-1" d="M177.23,46.23V30.85l-10.41-.67a28.9,28.9,0,0,0-2.32-5.62l6.89-7.83L160.51,5.85l-7.84,6.89a29.07,29.07,0,0,0-5.61-2.32L146.38,0H131l-.67,10.42a28.9,28.9,0,0,0-5.62,2.32l-7.84-6.89L106,16.73l6.88,7.83a30.2,30.2,0,0,0-2.32,5.62l-10.41.67V46.23l10.41.67a29.44,29.44,0,0,0,2.32,5.61L106,60.35l10.87,10.88,7.84-6.89a29.07,29.07,0,0,0,5.61,2.32L131,77.08h15.37l.68-10.42a29.07,29.07,0,0,0,5.61-2.32l7.84,6.89,10.88-10.87-6.89-7.85a29.18,29.18,0,0,0,2.32-5.61Zm-37.51,6.63a13.79,13.79,0,1,1,13.79-13.78A13.78,13.78,0,0,1,139.72,52.86Z"/><path class="cls-1" d="M104.26,76.71V55.91L90.17,55A39.25,39.25,0,0,0,87,47.41l9.32-10.6L81.64,22.09,71,31.41a39.25,39.25,0,0,0-7.59-3.14l-.91-14.09H41.73l-.91,14.09a39.61,39.61,0,0,0-7.6,3.14l-10.6-9.32L7.91,36.81l9.32,10.6A39.25,39.25,0,0,0,14.09,55L0,55.91v20.8l14.09.91a39.61,39.61,0,0,0,3.14,7.6L7.91,95.82l14.71,14.71,10.6-9.32a39.61,39.61,0,0,0,7.6,3.14l.91,14.09h20.8l.91-14.09A39.25,39.25,0,0,0,71,101.21l10.61,9.32L96.35,95.82,87,85.22a39.61,39.61,0,0,0,3.14-7.6ZM52.8,40.49A10.81,10.81,0,1,1,42,51.3,10.8,10.8,0,0,1,52.8,40.49ZM74.65,88.54H31v-8A14.4,14.4,0,0,1,45.31,66.17h15A14.4,14.4,0,0,1,74.65,80.52Z"/><path class="cls-1" d="M197.22,65.24l15-39.76H220l14.95,39.76H226.4l-3.53-9.74H209.1l-3.59,9.74ZM211.45,49h9L216,36.63Z"/><path class="cls-1" d="M245.78,37.52V53.15q0,6.66,4.87,6.66c3.28,0,4.93-2.22,4.93-6.66V37.52h7.61V65.24h-7.61V61.88a8.08,8.08,0,0,1-3.42,3.17,10.76,10.76,0,0,1-4.76,1,8.6,8.6,0,0,1-6.78-2.77c-1.64-1.85-2.46-4.69-2.46-8.54V37.52Z"/><path class="cls-1" d="M271.37,37.52v-8H279v8h8.46v6.27H279V54.27c0,1.94.51,3.27,1.52,4a7.24,7.24,0,0,0,4.31,1.09,15.31,15.31,0,0,0,2.63-.22v6.38a31.07,31.07,0,0,1-3.87.28q-12.19,0-12.2-11.2V43.79h-3.76V37.52Z"/><path class="cls-1" d="M292.45,43.51a12.37,12.37,0,0,1,5.1-5.06,16.77,16.77,0,0,1,15,0,12.32,12.32,0,0,1,5.1,5.09,16.09,16.09,0,0,1,1.82,7.81,16.1,16.1,0,0,1-1.82,7.82,12.52,12.52,0,0,1-5.1,5.12,16.61,16.61,0,0,1-15,0,12.52,12.52,0,0,1-5.1-5.12,16.1,16.1,0,0,1-1.82-7.82A16.08,16.08,0,0,1,292.45,43.51Zm7.84,14.26a6.41,6.41,0,0,0,9.58,0q1.88-2.16,1.87-6.42c0-2.83-.61-5-1.85-6.41a6.47,6.47,0,0,0-9.63,0q-1.85,2.16-1.85,6.41T300.29,57.77Z"/><path class="cls-1" d="M324.79,37.52h7.62v3.59a7.69,7.69,0,0,1,3.41-3.31,11.18,11.18,0,0,1,5-1.12A9.92,9.92,0,0,1,346,38a7.7,7.7,0,0,1,3.25,4,9.06,9.06,0,0,1,4.12-4,12.36,12.36,0,0,1,5.46-1.29,9,9,0,0,1,6.91,2.8q2.61,2.81,2.61,8.51V65.24h-7.62V49.62a7.72,7.72,0,0,0-1.37-5A4.71,4.71,0,0,0,355.59,43a4.77,4.77,0,0,0-3.81,1.63,7.6,7.6,0,0,0-1.4,5V65.24h-7.61V49.62a7.66,7.66,0,0,0-1.38-5A4.68,4.68,0,0,0,337.61,43a4.77,4.77,0,0,0-3.8,1.63c-.94,1.08-1.4,2.76-1.4,5V65.24h-7.62Z"/><path class="cls-1" d="M379.64,43.6a16.9,16.9,0,0,0-4.28,1.54V38.59A23.44,23.44,0,0,1,380,37.21a27.93,27.93,0,0,1,5.37-.53A15.8,15.8,0,0,1,395,39.4q3.69,2.72,3.69,8.93V65.24h-7.11V61.77A8.26,8.26,0,0,1,388.13,65a10.5,10.5,0,0,1-4.88,1.12,12.38,12.38,0,0,1-5.46-1.15,8.42,8.42,0,0,1-5-7.81q0-5,4.93-7.22a27.71,27.71,0,0,1,11.36-2.19c.9,0,1.55,0,2,.06V47.6a3.67,3.67,0,0,0-1.9-3.47,9.9,9.9,0,0,0-4.87-1.06A21.13,21.13,0,0,0,379.64,43.6Zm2.13,15.73a5.57,5.57,0,0,0,3.44,1,6.44,6.44,0,0,0,4.31-1.62,6.18,6.18,0,0,0,1.91-5v-1c-1.05-.07-1.91-.11-2.58-.11a16.82,16.82,0,0,0-5.93.93,3.22,3.22,0,0,0-2.47,3.1A3.13,3.13,0,0,0,381.77,59.33Z"/><path class="cls-1" d="M406.27,37.52v-8h7.62v8h8.45v6.27h-8.45V54.27c0,1.94.5,3.27,1.51,4a7.24,7.24,0,0,0,4.31,1.09,15.31,15.31,0,0,0,2.63-.22v6.38a31.06,31.06,0,0,1-3.86.28q-12.21,0-12.21-11.2V43.79h-3.75V37.52Z"/><path class="cls-1" d="M435.11,25.76a4.06,4.06,0,0,1,0,5.94,4.6,4.6,0,0,1-3.31,1.23,4.67,4.67,0,0,1-3.36-1.23,4.09,4.09,0,0,1,0-5.94,4.67,4.67,0,0,1,3.36-1.23A4.6,4.6,0,0,1,435.11,25.76ZM428,65.24V37.52h7.61V65.24Z"/><path class="cls-1" d="M442.7,43.51a12.41,12.41,0,0,1,5.09-5.06,16.8,16.8,0,0,1,15,0,12.44,12.44,0,0,1,5.1,5.09,16.09,16.09,0,0,1,1.82,7.81,16.1,16.1,0,0,1-1.82,7.82,12.64,12.64,0,0,1-5.1,5.12,16.63,16.63,0,0,1-15,0,12.55,12.55,0,0,1-5.09-5.12,16,16,0,0,1-1.82-7.82A16,16,0,0,1,442.7,43.51Zm7.84,14.26a6.4,6.4,0,0,0,9.57,0Q462,55.61,462,51.35t-1.85-6.41a6.47,6.47,0,0,0-9.63,0q-1.85,2.16-1.85,6.41C448.66,54.19,449.28,56.33,450.54,57.77Z"/><path class="cls-1" d="M482.65,41.11A7.67,7.67,0,0,1,486,37.83a11.19,11.19,0,0,1,5.15-1.15,9.16,9.16,0,0,1,7,2.8q2.64,2.81,2.64,8.51V65.24h-7.68V49.62c0-2.28-.46-4-1.4-5a4.77,4.77,0,0,0-3.8-1.63,4.86,4.86,0,0,0-3.84,1.63,7.49,7.49,0,0,0-1.43,5V65.24H475V37.52h7.61Z"/><path class="cls-2" d="M204.84,113.37a30.57,30.57,0,0,0,6.1.62,13.75,13.75,0,0,0,7.2-1.68,5.15,5.15,0,0,0,2.77-4.6,5.5,5.5,0,0,0-1.79-4.22,13.56,13.56,0,0,0-5.88-2.66l-3-.73a16.25,16.25,0,0,1-8-4.15,10.18,10.18,0,0,1-2.89-7.5,8.69,8.69,0,0,1,2-5.74,12.92,12.92,0,0,1,5.4-3.75,20.44,20.44,0,0,1,7.48-1.32,28.71,28.71,0,0,1,9.8,1.63v5.32a26.8,26.8,0,0,0-4.82-1.35,28.46,28.46,0,0,0-5.15-.5,11.44,11.44,0,0,0-6.47,1.57,4.77,4.77,0,0,0-2.32,4.14q0,4.76,6.94,6.44l3,.73q5.88,1.45,8.74,4.14a9.67,9.67,0,0,1,2.85,7.39,10.26,10.26,0,0,1-2,6.39,12.88,12.88,0,0,1-5.63,4.11,21.65,21.65,0,0,1-8.12,1.43,34.46,34.46,0,0,1-5.85-.53,30,30,0,0,1-5.8-1.6v-5.37A23.73,23.73,0,0,0,204.84,113.37Z"/><path class="cls-2" d="M229.26,90.75h6l8.85,20.44,8.73-20.44h5.88l-16.57,38.41h-5.83L241.13,118Z"/><path class="cls-2" d="M265.18,113.73a21.58,21.58,0,0,0,5,.59,13.23,13.23,0,0,0,4.76-.78,2.79,2.79,0,0,0,2-2.75,2.61,2.61,0,0,0-1.29-2.4,15,15,0,0,0-4.2-1.46l-2.46-.56q-8.29-1.84-8.29-8.62a6.47,6.47,0,0,1,3.25-5.69,15.2,15.2,0,0,1,8.4-2.1,24,24,0,0,1,7.62,1.12V96a21.07,21.07,0,0,0-7.68-1.34,11.54,11.54,0,0,0-4.5.75A2.51,2.51,0,0,0,266,97.8a2.54,2.54,0,0,0,1.15,2.24,10.7,10.7,0,0,0,3.44,1.35l2.64.61q4.75,1,6.86,3.11a7.31,7.31,0,0,1,2.1,5.4,7.21,7.21,0,0,1-3.34,6.3,14.27,14.27,0,0,1-8.26,2.27,29,29,0,0,1-5.18-.5,18.86,18.86,0,0,1-4.5-1.35v-4.92A20.2,20.2,0,0,0,265.18,113.73Z"/><path class="cls-2" d="M288.73,90.75V83.07h5.54v7.68h9.13v4.76h-9.13v12.32q0,3.69,1.71,4.92a8.11,8.11,0,0,0,4.84,1.24,13.68,13.68,0,0,0,2.58-.23v4.76a21.06,21.06,0,0,1-3.3.23q-5.61,0-8.49-2.52t-2.88-8.18V95.51H285V90.75Z"/><path class="cls-2" d="M312.36,105.36a8.4,8.4,0,0,0,3.05,6.72,11.35,11.35,0,0,0,7.2,2.24,19.76,19.76,0,0,0,5-.56A20.76,20.76,0,0,0,332,112v5a25.41,25.41,0,0,1-10,2.07,17.86,17.86,0,0,1-7.89-1.68,12.54,12.54,0,0,1-5.44-5,15.36,15.36,0,0,1-2-8,15.91,15.91,0,0,1,1.82-7.82,12.5,12.5,0,0,1,4.93-5,14.22,14.22,0,0,1,7-1.71,12,12,0,0,1,9.44,4q3.5,3.95,3.44,11.45Zm12.94-9.24a7.28,7.28,0,0,0-5-1.73,7.82,7.82,0,0,0-5.09,1.76,8,8,0,0,0-2.75,5.12H327.7A8,8,0,0,0,325.3,96.12Z"/><path class="cls-2" d="M339.07,90.75h5.55V94.5a8.23,8.23,0,0,1,3.5-3.36A11.11,11.11,0,0,1,353.35,90a10.68,10.68,0,0,1,5.46,1.35,8.31,8.31,0,0,1,3.5,4.08,9.28,9.28,0,0,1,4.09-4.06A12.55,12.55,0,0,1,372.17,90a9.69,9.69,0,0,1,7.25,2.83c1.85,1.89,2.77,4.75,2.77,8.6v16.85h-5.54V102.39a8.47,8.47,0,0,0-1.74-5.74,6.06,6.06,0,0,0-4.81-2,6.32,6.32,0,0,0-4.9,2,8.19,8.19,0,0,0-1.82,5.74v15.85h-5.55V102.39a8.52,8.52,0,0,0-1.73-5.74,6.09,6.09,0,0,0-4.82-2,6.24,6.24,0,0,0-4.87,2,8.28,8.28,0,0,0-1.79,5.74v15.85h-5.55Z"/></g></g></svg>