<svg xmlns="http://www.w3.org/2000/svg" viewBox="0 0 22.85 23.23"><defs><style>.cls-1{fill:#fff;}</style></defs><title>myrta_marketsearch</title><g id="Layer_2" data-name="Layer 2"><g id="Layer_3" data-name="Layer 3"><path class="cls-1" d="M3.36,10h1A5.62,5.62,0,0,1,10,4.36v-1A6.62,6.62,0,0,0,3.36,10Z"/><path class="cls-1" d="M22.55,21.53,17.5,16.48A10,10,0,1,0,10,19.94a9.94,9.94,0,0,0,6.08-2.09l5.09,5.09a1,1,0,0,0,1.41,0A1,1,0,0,0,22.55,21.53ZM10,17.94a8,8,0,1,1,8-8A8,8,0,0,1,10,17.94Z"/></g></g></svg>