<svg xmlns="http://www.w3.org/2000/svg" viewBox="0 0 1024 1024"><defs><style>.cls-1{fill:#e00;}.cls-2{fill:#fff;}.cls-3,.cls-4{fill:none;}.cls-3{stroke:#e00;stroke-linecap:round;stroke-linejoin:round;stroke-width:6px;}.cls-4{stroke:#fff;stroke-miterlimit:10;stroke-width:26px;}</style></defs><title>Asset 3</title><g id="Layer_2" data-name="Layer 2"><g id="Layer_1-2" data-name="Layer 1"><rect class="cls-1" width="1024" height="1024"/><path class="cls-2" d="M512,934.43c89.86.39,258.75-85.91,258.75-151.22,0-79.76-148.6-133.68-148.6-133.68s-84.91-25.82-29.26-77.45S640.51,435,640.51,435h-257s-8,85.49,47.62,137.12-29.26,77.45-29.26,77.45-149.74,53.93-148.6,133.68S425.72,919.82,512,934.43Z"/><path class="cls-2" d="M512.57,408.14H689s1.53-3.44,0-28c-1.33-21.32-30.55-22.8-30.55-22.8-1.29-105.42-93.8-126.94-93.8-126.94C550,235.6,537.1,327.25,537.1,327.25V214.94c0-13.34-11.19-13.77-11.19-13.77H498.09s-11.19.43-11.19,13.77V327.25S474,235.6,459.36,230.43c0,0-92.51,21.52-93.8,126.94,0,0-29.22,1.48-30.55,22.8-1.53,24.53,0,28,0,28H512.57Z"/><path class="cls-3" d="M434.5,373a778.9,778.9,0,0,0,151,0"/><path class="cls-4" d="M512.41,76.39S300.44,220.06,150,210.66v315s-4.7,338.49,362,413.71c366.7-75.22,362-413.71,362-413.71v-315C723.56,220.06,512.41,76.39,512.41,76.39Z"/></g></g></svg>