<svg xmlns="http://www.w3.org/2000/svg" viewBox="0 0 566.9 566.9"><defs><style>.cls-1{fill:#e00;}.cls-2{fill:#fff;}</style></defs><title>myrta_icon_IThelpdesk</title><g id="Layer_2" data-name="Layer 2"><g id="Layer_1-2" data-name="Layer 1"><rect class="cls-1" width="566.9" height="566.9"/><path class="cls-2" d="M450.26,159.91V367.57H112.8V159.91H450.26m25.95-26H86.84V393.53H476.21V134Z"/><rect class="cls-2" x="49.35" y="399.3" width="468.21" height="33.65"/><path class="cls-2" d="M431.73,180.92V346.56H131.33V180.92h300.4M443,169.61H120V357.87H443V169.61Z"/><path class="cls-2" d="M242.62,239.61q0-8.06,5.19-16.34a39.88,39.88,0,0,1,15.11-13.7q9.91-5.43,23.16-5.44a49.35,49.35,0,0,1,21.72,4.55A35.29,35.29,0,0,1,322.37,221a30.25,30.25,0,0,1,5.12,17,26.12,26.12,0,0,1-2.91,12.64,39.19,39.19,0,0,1-7,9.38q-4,4-14.47,13.28a61.09,61.09,0,0,0-4.64,4.63,18.56,18.56,0,0,0-2.58,3.65,19,19,0,0,0-1.32,3.31c-.31,1.1-.77,3-1.4,5.82q-1.6,8.82-10.09,8.82a10.37,10.37,0,0,1-7.44-2.88c-2-1.93-3-4.79-3-8.58a30.11,30.11,0,0,1,8.07-21.51,131.49,131.49,0,0,1,9.84-9.38q5.44-4.76,7.84-7.17a23.63,23.63,0,0,0,4.08-5.39,13,13,0,0,0,1.67-6.45,15,15,0,0,0-5.06-11.46q-5-4.67-13-4.67-9.31,0-13.74,4.71c-2.94,3.14-5.44,7.77-7.46,13.88q-2.91,9.59-11,9.59a10.78,10.78,0,0,1-8-3.35A10.28,10.28,0,0,1,242.62,239.61Zm41.44,93a13.36,13.36,0,0,1-9.05-3.35q-3.87-3.36-3.87-9.38a12.06,12.06,0,0,1,3.74-9,12.63,12.63,0,0,1,9.18-3.64,12.42,12.42,0,0,1,12.63,12.64q0,5.94-3.81,9.34A12.9,12.9,0,0,1,284.06,332.63Z"/></g></g></svg>