<svg xmlns="http://www.w3.org/2000/svg" viewBox="0 0 30 30"><defs><style>.cls-1{fill:#171c8f;}.cls-2{fill:#fff;}</style></defs><title>Asset 43</title><g id="Layer_2" data-name="Layer 2"><g id="Layer_1-2" data-name="Layer 1"><circle class="cls-1" cx="15" cy="15" r="15"/><path class="cls-2" d="M13.89,12.2H15.1v1.21a.69.69,0,1,0,1.37,0V12.2h1.21a.69.69,0,0,0,.69-.69.68.68,0,0,0-.69-.68H16.47V9.62a.69.69,0,1,0-1.37,0v1.21H13.89a.68.68,0,0,0-.69.68A.69.69,0,0,0,13.89,12.2Z"/><path class="cls-2" d="M12.8,19a1.89,1.89,0,1,0,1.89,1.89A1.89,1.89,0,0,0,12.8,19Zm0,2.41a.52.52,0,1,1,.51-.52A.52.52,0,0,1,12.8,21.38Z"/><path class="cls-2" d="M18.52,19a1.89,1.89,0,1,0,1.89,1.89A1.89,1.89,0,0,0,18.52,19Zm0,2.41a.52.52,0,1,1,.52-.52A.51.51,0,0,1,18.52,21.38Z"/><path class="cls-2" d="M22.69,11.18a.68.68,0,0,0-.54-.27H20a4.24,4.24,0,0,0-8.41,0H9.94L9.4,9a.7.7,0,0,0-.63-.51L6.13,8.33A.66.66,0,0,0,5.42,9a.68.68,0,0,0,.65.72l2.13.09.54,2s0,0,0,0l1.59,5.77.17.61a.6.6,0,0,0,.19.3s0,.05.05.06l.1.05.1.06a.78.78,0,0,0,.22,0h9.23a.68.68,0,0,0,.66-.5l1.76-6.38A.69.69,0,0,0,22.69,11.18ZM13.26,9a3.58,3.58,0,1,1,0,5.06A3.55,3.55,0,0,1,13.26,9Zm6.61,8.31H11.68l-1.37-5H11.6a4.26,4.26,0,0,0,7.2,2.24A4.2,4.2,0,0,0,20,12.29h1.28Z"/></g></g></svg>