<svg xmlns="http://www.w3.org/2000/svg" viewBox="0 0 30 30"><defs><style>.cls-1{fill:#171c8f;}.cls-2{fill:#fff;}</style></defs><title>myrta_icon_attach</title><g id="Layer_2" data-name="Layer 2"><g id="Layer_1-2" data-name="Layer 1"><circle class="cls-1" cx="15" cy="15" r="15"/><path class="cls-2" d="M11.88,18.81a.73.73,0,0,1-.49-.2.69.69,0,0,1,0-1l6.05-6a.68.68,0,0,1,1,0,.69.69,0,0,1,0,1l-6,6a.7.7,0,0,1-.49.2Z"/><path class="cls-2" d="M17.85,16.07l-.34,0a.69.69,0,0,1-.63-.75.71.71,0,0,1,.76-.63A2.3,2.3,0,0,0,19.48,14l1.71-1.72A2.33,2.33,0,0,0,21.2,9L21,8.81a2.32,2.32,0,0,0-3.29,0L16,10.52a2.33,2.33,0,0,0-.66,1.84.7.7,0,0,1-.63.76.69.69,0,0,1-.75-.63A3.67,3.67,0,0,1,15,9.55l1.72-1.72a3.71,3.71,0,0,1,5.25,0l.19.19a3.71,3.71,0,0,1,0,5.25L20.45,15a3.65,3.65,0,0,1-2.6,1.08Z"/><path class="cls-2" d="M10.65,23.26A3.7,3.7,0,0,1,8,22.17L7.82,22a3.72,3.72,0,0,1-1.08-2.63,3.68,3.68,0,0,1,1.09-2.62L9.55,15A3.67,3.67,0,0,1,12.49,14a.69.69,0,0,1-.12,1.38,2.27,2.27,0,0,0-1.84.66L8.81,17.71a2.33,2.33,0,0,0,0,3.29l.19.2a2.33,2.33,0,0,0,3.29,0L14,19.47a2.24,2.24,0,0,0,.66-1.84.69.69,0,0,1,1.38-.12A3.64,3.64,0,0,1,15,20.45l-1.72,1.72a3.66,3.66,0,0,1-2.62,1.09Z"/></g></g></svg>