<svg xmlns="http://www.w3.org/2000/svg" viewBox="0 0 18.82 18.82"><defs><style>.cls-1{fill:#171c8f;stroke:#171c8f;stroke-miterlimit:10;stroke-width:0.26px;}</style></defs><title>Asset 44</title><g id="Layer_2" data-name="Layer 2"><g id="Layer_1-2" data-name="Layer 1"><path class="cls-1" d="M5.91,13.69a.78.78,0,0,1-.55-.23.77.77,0,0,1,0-1.1l6.78-6.79a.78.78,0,0,1,1.1,0,.77.77,0,0,1,0,1.1L6.46,13.46a.8.8,0,0,1-.55.23Z"/><path class="cls-1" d="M12.61,10.61l-.38,0a.79.79,0,0,1-.71-.84A.8.8,0,0,1,12.37,9a2.61,2.61,0,0,0,2.07-.74l1.93-1.93a2.62,2.62,0,0,0,0-3.7l-.22-.22a2.62,2.62,0,0,0-3.7,0L10.52,4.38a2.59,2.59,0,0,0-.74,2.07.78.78,0,0,1-.71.84.77.77,0,0,1-.84-.7A4.15,4.15,0,0,1,9.42,3.28l1.93-1.93a4.17,4.17,0,0,1,5.9,0l.22.22a4.19,4.19,0,0,1,0,5.9L15.54,9.4a4.15,4.15,0,0,1-2.93,1.21Z"/><path class="cls-1" d="M4.52,18.69a4.16,4.16,0,0,1-2.95-1.22l-.22-.23a4.16,4.16,0,0,1,0-5.89L3.28,9.42A4.13,4.13,0,0,1,6.59,8.23a.77.77,0,0,1-.14,1.54,2.64,2.64,0,0,0-2.07.75L2.45,12.45a2.63,2.63,0,0,0,0,3.7l.22.22a2.62,2.62,0,0,0,3.7,0L8.3,14.43A2.57,2.57,0,0,0,9,12.37a.78.78,0,1,1,1.55-.14,4.12,4.12,0,0,1-1.19,3.3L7.47,17.47a4.16,4.16,0,0,1-2.95,1.22Z"/></g></g></svg>