<svg xmlns="http://www.w3.org/2000/svg" viewBox="0 0 566.93 566.93"><defs><style>.cls-1{fill:#e00;}.cls-2,.cls-3,.cls-5{fill:#fff;}.cls-3{stroke:#ec1c24;}.cls-3,.cls-4,.cls-5{stroke-miterlimit:10;}.cls-4{fill:none;stroke-width:5px;}.cls-4,.cls-5{stroke:#e00;}.cls-5{stroke-width:6px;}</style></defs><title>Asset 1</title><g id="Layer_2" data-name="Layer 2"><g id="Layer_1-2" data-name="Layer 1"><rect class="cls-1" width="566.93" height="566.93"/><path class="cls-2" d="M428.47,320h-52a50,50,0,0,0-49.77,49.77v37.3H478.19V369.8A49.87,49.87,0,0,0,428.47,320Z"/><path class="cls-2" d="M402.49,306A37.48,37.48,0,1,0,365,268.48,37.43,37.43,0,0,0,402.49,306Z"/><path class="cls-2" d="M190.47,320h-52A50,50,0,0,0,88.74,369.8v37.3H240.19V369.8A49.87,49.87,0,0,0,190.47,320Z"/><path class="cls-2" d="M164.49,306A37.48,37.48,0,1,0,127,268.48,37.43,37.43,0,0,0,164.49,306Z"/><path class="cls-2" d="M315.55,278.32H241c-39.22,0-71.38,38.07-71.38,84.5v63.33H386.85V362.82C386.92,316.39,354.77,278.32,315.55,278.32Z"/><path class="cls-2" d="M278.29,268.14a63.64,63.64,0,1,0-63.6-63.69A63.57,63.57,0,0,0,278.29,268.14Z"/><path class="cls-3" d="M315.55,278.32H241c-39.22,0-71.38,38.07-71.38,84.5v63.33H386.85V362.82C386.92,316.39,354.77,278.32,315.55,278.32Z"/><path class="cls-3" d="M278.29,268.14a63.64,63.64,0,1,0-63.6-63.69A63.57,63.57,0,0,0,278.29,268.14Z"/><path class="cls-4" d="M315.55,278.32H241c-39.22,0-71.38,38.07-71.38,84.5v63.33H386.85V362.82C386.92,316.39,354.77,278.32,315.55,278.32Z"/><path class="cls-4" d="M278.29,268.14a63.64,63.64,0,1,0-63.6-63.69A63.57,63.57,0,0,0,278.29,268.14Z"/><path class="cls-5" d="M325.3,320.47l54.87-79.54s3.76-3.72,2.07-13-25.4-104-25.4-104-1-20.87,24.35-27.12c13.65-3,29,6.85,30.61,16.8s27.92,122.46,27.92,122.46,6.32,13.85-3,26.57-77.74,124-77.74,124Z"/><path class="cls-2" d="M314.74,279.91H241.81c-38.38,0-69.84,37.25-69.84,82.68v62H384.51v-62C384.59,317.16,353.12,279.91,314.74,279.91Z"/></g></g></svg>