<svg xmlns="http://www.w3.org/2000/svg" viewBox="0 0 80 80"><defs><style>.cls-1{fill:#e00;}.cls-2{fill:#fff;}</style></defs><title>reportIt</title><g id="Layer_2" data-name="Layer 2"><g id="Layer_1-2" data-name="Layer 1"><rect class="cls-1" width="80" height="80"/><path class="cls-2" d="M33,47.14a1.75,1.75,0,0,1-1.75-1.86l.4-6.81a1.79,1.79,0,0,1,.51-1.14L52.5,17a1.78,1.78,0,0,1,1.24-.51h0A1.77,1.77,0,0,1,55,17l6.41,6.4a1.77,1.77,0,0,1,0,2.49L41.08,46.23a1.81,1.81,0,0,1-1.14.51l-6.81.4Zm2.12-7.8-.25,4.18,4.17-.25,18.61-18.6-3.93-3.93-18.6,18.6Z"/><path class="cls-2" d="M56.53,28.52a.89.89,0,0,1-.62-.26L50.15,22.5a.88.88,0,1,1,1.24-1.25L57.15,27a.88.88,0,0,1-.62,1.5Z"/><path class="cls-2" d="M37.69,41.59a.86.86,0,0,1-.62-.25.88.88,0,0,1,0-1.24L52.93,24.24a.88.88,0,0,1,1.24,1.24L38.31,41.34a.88.88,0,0,1-.62.25Z"/><path class="cls-2" d="M33.05,46.3a.87.87,0,0,1-.62-.26.84.84,0,0,1-.25-.67l.19-3.31a.87.87,0,0,1,.74-.81l.29-.06.38,0a3.38,3.38,0,0,1,2.54,1.08,3.49,3.49,0,0,1,.86,2.69c0,.17,0,.3-.08.42a1,1,0,0,1-.82.74l-3.17.2Zm1-3.35L34,44.48l1.44-.08A1.54,1.54,0,0,0,34.08,43Z"/><path class="cls-2" d="M52.59,58.56H18.92v-29L29.47,19H50.84a1.76,1.76,0,0,1,0,3.51H30.92L22.43,31V55H49.08V34.41a1.76,1.76,0,1,1,3.51,0V58.56Z"/><path class="cls-2" d="M31.07,31.19H20.68a.88.88,0,0,1,0-1.76h8.63V20.8a.88.88,0,1,1,1.76,0V31.19Z"/><path class="cls-1" d="M38.11,61.54l11.68-20a1.31,1.31,0,0,1,2.28,0l10.85,20a1.31,1.31,0,0,1-1.15,1.93H39.23A1.3,1.3,0,0,1,38.11,61.54Z"/><path class="cls-2" d="M49.86,54l-.16-2.4c0-.47-.05-.81-.05-1a.94.94,0,0,1,.22-.65.78.78,0,0,1,.58-.23A.58.58,0,0,1,51,50a2,2,0,0,1,.15.86c0,.22,0,.44,0,.67L50.92,54a2.23,2.23,0,0,1-.15.67.4.4,0,0,1-.38.24.38.38,0,0,1-.38-.23A2.23,2.23,0,0,1,49.86,54Zm.56,3.29a.8.8,0,0,1-.54-.2.69.69,0,0,1-.23-.55.75.75,0,0,1,.76-.75.73.73,0,0,1,.53.22.72.72,0,0,1,.23.53.7.7,0,0,1-.23.55A.77.77,0,0,1,50.42,57.28Z"/><path class="cls-2" d="M59.5,60.69h-18a.72.72,0,0,1-.63-.37.73.73,0,0,1,0-.73l9-15.58a.76.76,0,0,1,1.27,0l9,15.58a.69.69,0,0,1,0,.73.72.72,0,0,1-.63.37ZM42.77,59.22H58.23L50.5,45.84,42.77,59.22Z"/></g></g></svg>