<svg xmlns="http://www.w3.org/2000/svg" viewBox="0 0 21.99 16"><defs><style>.cls-1{fill:#171c8f;}</style></defs><title>icon_attch_view</title><g id="Layer_2" data-name="Layer 2"><g id="Layer_1-2" data-name="Layer 1"><path class="cls-1" d="M11,16A11.37,11.37,0,0,1,.05,8.29a.86.86,0,0,1,0-.59A11.37,11.37,0,0,1,11,0a11.38,11.38,0,0,1,11,7.7.86.86,0,0,1,0,.59A11.37,11.37,0,0,1,11,16ZM2,8a9.51,9.51,0,0,0,9,6.09A9.51,9.51,0,0,0,20,8a9.5,9.5,0,0,0-9-6.09A9.49,9.49,0,0,0,2,8Z"/><path class="cls-1" d="M11,13.17A5.18,5.18,0,0,1,5.82,8,1,1,0,1,1,7.73,8,3.27,3.27,0,1,0,11,4.74a1,1,0,0,1,0-1.91,5.17,5.17,0,1,1,0,10.34Z"/></g></g></svg>