<svg xmlns="http://www.w3.org/2000/svg" viewBox="0 0 18.53 19"><defs><style>.cls-1{fill:#171c8f;}</style></defs><title>icon_attch_download</title><g id="Layer_2" data-name="Layer 2"><g id="Layer_1-2" data-name="Layer 1"><path class="cls-1" d="M8.79,10.12l.11.05.08.05a.93.93,0,0,0,.29,0,.92.92,0,0,0,.28,0l.09-.05.1-.05L14.07,7a.81.81,0,0,0-1-1.3l-3,2.22V.81a.81.81,0,1,0-1.61,0V7.89l-3-2.22a.81.81,0,0,0-1.13.18A.8.8,0,0,0,4.47,7Z"/><path class="cls-1" d="M18.53,12.5h0s0,0,0-.06a.93.93,0,0,0-.05-.24.54.54,0,0,0-.1-.16l-.06-.1L15.05,8.57a.81.81,0,0,0-1.16,1.12l1.93,2H12.49a.81.81,0,0,0-.81.81v1.14H6.85V12.49A.81.81,0,0,0,6,11.68H2.71l1.93-2A.81.81,0,1,0,3.48,8.57L.24,11.92h0s0,0,0,.05a.6.6,0,0,0-.14.21.86.86,0,0,0,0,.17.5.5,0,0,0,0,.13v5.7A.81.81,0,0,0,.81,19H17.73a.8.8,0,0,0,.8-.81V12.51Zm-1.61,4.89H1.61V13.3H5.24v.33a1.61,1.61,0,0,0,1.61,1.61h4.83a1.61,1.61,0,0,0,1.61-1.61V13.3h3.63Z"/></g></g></svg>