<svg id="Layer_1" data-name="Layer 1" xmlns="http://www.w3.org/2000/svg" viewBox="0 0 80 80"><defs><style>.cls-1{fill:#e00;}.cls-2{fill:#f2eee8;}</style></defs><title>myrta_icon_tellus</title><g id="Layer_2" data-name="Layer 2"><g id="Layer_1-2" data-name="Layer 1-2"><rect class="cls-1" width="80" height="80"/></g></g><path class="cls-2" d="M24.94,57.53c-.52,0-1.05,0-1.58-.06A1.85,1.85,0,0,1,22.68,54a11.26,11.26,0,0,0,4-3.23C20.28,47.62,16.25,42,16.25,35.86c0-9.58,9.66-17.37,21.54-17.37s21.53,7.79,21.53,17.37S49.66,53.23,37.79,53.23l-.84,0a17.58,17.58,0,0,1-12,4.32ZM37.79,22.2C28,22.2,20,28.33,20,35.86,20,41,23.91,45.85,30,48.14a1.84,1.84,0,0,1,1,2.56l-.11.22c-.11.24-.23.47-.36.7a15.53,15.53,0,0,1-1.1,1.59A12.18,12.18,0,0,0,34.91,50a1.88,1.88,0,0,1,1.44-.56c.47,0,.95.06,1.44.06,9.83,0,17.82-6.13,17.82-13.66s-8-13.66-17.82-13.66Z"/><path class="cls-2" d="M29.5,33.82a2.7,2.7,0,1,0,2.7,2.7,2.7,2.7,0,0,0-2.7-2.7Z"/><path class="cls-2" d="M37.79,33.82a2.7,2.7,0,1,0,2.69,2.7,2.7,2.7,0,0,0-2.69-2.7Z"/><path class="cls-2" d="M46.07,33.82a2.7,2.7,0,1,0,2.7,2.7,2.7,2.7,0,0,0-2.7-2.7Z"/><path class="cls-1" d="M52.43,35,39.23,57.76a1.54,1.54,0,0,0,1.33,2.32H67.32a1.55,1.55,0,0,0,1.33-2.34L55.1,35A1.55,1.55,0,0,0,52.43,35Z"/><path class="cls-2" d="M53.07,49.83,52.88,47c0-.55-.05-1-.05-1.19a1.09,1.09,0,0,1,.25-.76.89.89,0,0,1,.67-.27.68.68,0,0,1,.68.35,2.42,2.42,0,0,1,.17,1,7.09,7.09,0,0,1,0,.79l-.25,2.89a2.37,2.37,0,0,1-.18.8.47.47,0,0,1-.45.28.45.45,0,0,1-.44-.27A2.62,2.62,0,0,1,53.07,49.83Zm.65,3.87a.91.91,0,0,1-.63-.23.8.8,0,0,1-.26-.65.84.84,0,0,1,.25-.62.89.89,0,0,1,1.52.62.84.84,0,0,1-.26.65A.93.93,0,0,1,53.72,53.7Z"/><path class="cls-2" d="M64.39,57.71H43.25a.86.86,0,0,1-.74-1.29L53.08,38.11a.9.9,0,0,1,1.49,0L65.13,56.42a.83.83,0,0,1,0,.86.86.86,0,0,1-.74.43ZM44.75,56H62.9L53.82,40.26,44.75,56Z"/></svg>