<svg xmlns="http://www.w3.org/2000/svg" viewBox="0 0 19.85 19"><defs><style>.cls-1{fill:#171c8f;}</style></defs><title>icon_attch_edit</title><g id="Layer_2" data-name="Layer 2"><g id="Layer_1-2" data-name="Layer 1"><path class="cls-1" d="M19,4.94a.84.84,0,0,0-.25-.6L14.66.25a.86.86,0,0,0-1.21,0L.51,13.2a.81.81,0,0,0-.25.55L0,18.09a.88.88,0,0,0,.25.66A.86.86,0,0,0,.86,19H.91l4.34-.26a.83.83,0,0,0,.55-.25l13-12.94A.86.86,0,0,0,19,4.94ZM4.82,17.06l-1.93.11A1.51,1.51,0,0,0,1.83,16.1L2,14.18l10-10,.83.84L3.23,14.56a.85.85,0,0,0,0,1.21.82.82,0,0,0,.6.25.85.85,0,0,0,.61-.25L14,6.21l.83.83ZM16,5.83,13.17,3l.89-.89,2.87,2.87Z"/><path class="cls-1" d="M19,17.15H9.44a.86.86,0,0,0,0,1.71H19a.86.86,0,1,0,0-1.71Z"/></g></g></svg>