<svg xmlns="http://www.w3.org/2000/svg" viewBox="0 0 22.39 23.6"><defs><style>.cls-1{fill:#f03d40;}</style></defs><title>myrta_gridicon_delete</title><g id="Layer_2" data-name="Layer 2"><g id="Layer_1-2" data-name="Layer 1"><path class="cls-1" d="M21.41,2.66H15.32a4.53,4.53,0,0,0-8.25,0H1a1,1,0,0,0,0,2h.6l1,17.06a2,2,0,0,0,2,1.91H17.83a2,2,0,0,0,2-1.91l1-17.06h.6a1,1,0,1,0,0-2ZM11.2,2a2.57,2.57,0,0,1,1.74.69H9.45A2.58,2.58,0,0,1,11.2,2Zm6.63,19.66L4.57,21.57l-1-16.95H18.84Z"/><path class="cls-1" d="M7.46,20h.06a1,1,0,0,0,.92-1L7.79,7.21a1,1,0,0,0-2,.11l.66,11.73A1,1,0,0,0,7.46,20Z"/><path class="cls-1" d="M14.87,20h.06a1,1,0,0,0,1-.93l.65-11.73a1,1,0,0,0-.92-1,1,1,0,0,0-1,.92l-.66,11.73A1,1,0,0,0,14.87,20Z"/><path class="cls-1" d="M11.2,20a1,1,0,0,0,1-1V7.27a1,1,0,0,0-2,0V19A1,1,0,0,0,11.2,20Z"/></g></g></svg>