<svg xmlns="http://www.w3.org/2000/svg" viewBox="0 0 18.03 19"><defs><style>.cls-1{fill:#c1272d;}</style></defs><title>icon_attch_delete</title><g id="Layer_2" data-name="Layer 2"><g id="Layer_1-2" data-name="Layer 1"><path class="cls-1" d="M17.24,2.14h-4.9a3.65,3.65,0,0,0-6.65,0H.79a.79.79,0,0,0,0,1.58h.49L2.1,17.46A1.61,1.61,0,0,0,3.67,19H14.36a1.6,1.6,0,0,0,1.57-1.54l.82-13.73h.49a.79.79,0,0,0,0-1.58ZM9,1.59a2.1,2.1,0,0,1,1.4.55H7.61A2.11,2.11,0,0,1,9,1.59Zm5.34,15.82-10.68,0L2.86,3.72H15.17Z"/><path class="cls-1" d="M6,16.09h0a.8.8,0,0,0,.75-.84L6.27,5.81a.79.79,0,0,0-.83-.75.8.8,0,0,0-.75.84l.53,9.44A.79.79,0,0,0,6,16.09Z"/><path class="cls-1" d="M12,16.09h0a.79.79,0,0,0,.79-.75l.53-9.44a.8.8,0,0,0-.75-.84.79.79,0,0,0-.83.75l-.53,9.44A.79.79,0,0,0,12,16.09Z"/><path class="cls-1" d="M9,16.09a.79.79,0,0,0,.79-.79V5.85a.8.8,0,0,0-1.59,0V15.3A.79.79,0,0,0,9,16.09Z"/></g></g></svg>