<svg id="Layer_1" data-name="Layer 1" xmlns="http://www.w3.org/2000/svg" viewBox="0 0 80 80"><defs><style>.cls-1{fill:#e00;}.cls-2{fill:#f2eee8;}</style></defs><title>myrta_icon_requestservice</title><g id="Layer_2" data-name="Layer 2"><g id="Layer_1-2" data-name="Layer 1-2"><rect class="cls-1" width="80" height="80"/></g></g><circle class="cls-1" cx="52.89" cy="51.42" r="13"/><path class="cls-2" d="M51.37,42.07H20.2a4,4,0,1,1,0-7.91H51.37a4,4,0,1,1,0,7.91Z"/><path class="cls-2" d="M51.37,56.82H20.2a4,4,0,1,1,0-7.91H51.37a4,4,0,1,1,0,7.91Z"/><path class="cls-1" d="M41.91,38.15l6.19,23.7a1.86,1.86,0,0,0,1.84,1.38l14-.37a1.86,1.86,0,0,0,1.74-1.39L69.71,45.7a1.86,1.86,0,0,0-1.1-2.17L44.39,36A1.85,1.85,0,0,0,41.91,38.15Z"/><path class="cls-2" d="M51.37,27.32H20.2a4,4,0,1,1,0-7.91H51.37a4,4,0,1,1,0,7.91Z"/><path class="cls-2" d="M61.89,57.14a.81.81,0,0,1-.59-.25l-6.11-6.24a.85.85,0,0,1,0-1.2.84.84,0,0,1,1.19,0l6.1,6.24a.84.84,0,0,1,0,1.19.78.78,0,0,1-.6.24Z"/><path class="cls-2" d="M52.1,57.72h0a.83.83,0,0,1-.76-.52L43.85,39A.85.85,0,0,1,45,37.86L63,45.75a.82.82,0,0,1,.5.78.84.84,0,0,1-.51.77l-7,3-3.13,6.95a.85.85,0,0,1-.78.49ZM46.2,40.24l5.95,14.5,2.46-5.46a.81.81,0,0,1,.44-.43l5.52-2.34L46.2,40.24Z"/></svg>