<svg id="Layer_1" data-name="Layer 1" xmlns="http://www.w3.org/2000/svg" viewBox="0 0 566.93 566.93"><defs><style>.cls-1{fill:#e00;}.cls-2{fill:#fff;}</style></defs><title>iconmain_timeattendance</title><rect class="cls-1" width="566.93" height="566.93"/><rect class="cls-2" x="127.61" y="284.3" width="304.88" height="179.2"/><polygon class="cls-2" points="409.98 197.26 409.98 219.02 409.98 219.02 409.98 240.79 344.69 240.79 344.69 219.02 344.68 219.02 344.68 197.26 214.13 197.26 214.13 219.02 214.12 219.02 214.12 240.79 148.83 240.79 148.83 219.02 148.82 219.02 148.82 197.26 105.3 197.26 105.3 262.54 453.5 262.54 453.5 197.26 409.98 197.26"/><polygon class="cls-2" points="192.36 197.26 192.36 153.73 170.59 153.73 170.59 197.26 170.59 219.02 192.36 219.02 192.36 197.26"/><polygon class="cls-2" points="388.21 197.26 388.21 153.73 366.45 153.73 366.45 197.26 366.45 219.02 388.21 219.02 388.21 197.26"/></svg>