<svg id="Layer_1" data-name="Layer 1" xmlns="http://www.w3.org/2000/svg" viewBox="0 0 111.5 34.83"><defs><style>.cls-1{fill:#171c8f;}.cls-2{fill:#e00;}.cls-3{fill:#efefef;}</style></defs><title>myrta_unaccess</title><path class="cls-1" d="M.85,8.59H3.8v2A4.51,4.51,0,0,1,5.67,8.8a6.11,6.11,0,0,1,2.8-.62,5.71,5.71,0,0,1,2.91.71,4.53,4.53,0,0,1,1.87,2.18,4.9,4.9,0,0,1,2.18-2.16,6.62,6.62,0,0,1,3.07-.73,5.18,5.18,0,0,1,3.87,1.5,6.32,6.32,0,0,1,1.48,4.59v9h-3V14.81A4.48,4.48,0,0,0,20,11.75a3.23,3.23,0,0,0-2.57-1.06,3.37,3.37,0,0,0-2.62,1.06,4.39,4.39,0,0,0-1,3.06v8.45h-3V14.81a4.48,4.48,0,0,0-.93-3.06,3.22,3.22,0,0,0-2.57-1.06,3.31,3.31,0,0,0-2.6,1.06,4.39,4.39,0,0,0-1,3.06v8.45H.85Z"/><path class="cls-1" d="M28.3,8.59,33,19.5,37.69,8.59h3.13L32,29.09H28.87l2.57-5.95L25.11,8.59Z"/><path class="cls-2" d="M49.49,14.3H46.71v9H43.54V2.05h6.57a11.2,11.2,0,0,1,6.22,1.48,5.18,5.18,0,0,1,2.24,4.65,5.35,5.35,0,0,1-1.42,3.94,7.33,7.33,0,0,1-4,1.91l7.32,9.23H56.69Zm.65-2.63a6.77,6.77,0,0,0,3.9-.88,3,3,0,0,0,1.24-2.61A3,3,0,0,0,54,5.56a6.77,6.77,0,0,0-3.9-.88H46.71v7Z"/><path class="cls-2" d="M67.17,23.26V4.68H59.91V2.05H77.57V4.68H70.34V23.26Z"/><path class="cls-2" d="M83.76,2.05h2.9L95,23.26H91.67l-2.33-6H81l-2.36,6H75.42Zm4.57,12.58-3.14-8.1L82,14.63Z"/><circle class="cls-3" cx="99.5" cy="23.33" r="11"/><path class="cls-2" d="M104.47,30H94.53a1.11,1.11,0,0,1-1.11-1.1V23a1.11,1.11,0,0,1,1.11-1.11h9.94A1.11,1.11,0,0,1,105.58,23v5.89a1.11,1.11,0,0,1-1.11,1.1Zm-9.94-7v5.89h9.94V23Z"/><path class="cls-2" d="M103,22.85a.55.55,0,0,1-.55-.55V20.78a3,3,0,1,0-6,0V22.3a.56.56,0,0,1-1.11,0V20.78a4.1,4.1,0,1,1,8.2,0V22.3a.56.56,0,0,1-.56.55Z"/><path class="cls-2" d="M99.5,24.05a1.14,1.14,0,0,0-1.15,1.15,1.13,1.13,0,0,0,.6,1v1.3h1.1V26.2a1.13,1.13,0,0,0,.6-1,1.14,1.14,0,0,0-1.15-1.15Z"/></svg>