<svg xmlns="http://www.w3.org/2000/svg" viewBox="0 0 20.5 24.25"><defs><style>.cls-1{fill:#FF7100;}</style></defs><title>myrta_icon_location</title><g id="Layer_2" data-name="Layer 2"><g id="Layer_1-2" data-name="Layer 1"><path class="cls-1" d="M10.25,0A10.26,10.26,0,0,0,0,10.25C0,15.67,8.62,23.17,9.6,24a1,1,0,0,0,1.3,0c1-.84,9.6-8.34,9.6-13.76A10.26,10.26,0,0,0,10.25,0Zm0,21.92C7.46,19.4,2,13.76,2,10.25a8.25,8.25,0,0,1,16.5,0C18.5,13.76,13,19.4,10.25,21.92Z"/><path class="cls-1" d="M10.25,5.25a5,5,0,1,0,5,5A5,5,0,0,0,10.25,5.25Zm0,8a3,3,0,1,1,3-3A3,3,0,0,1,10.25,13.25Z"/></g></g></svg>