<?xml version="1.0" encoding="UTF-8"?>
<svg width="27px" height="26px" viewBox="0 0 27 26" version="1.1" xmlns="http://www.w3.org/2000/svg" xmlns:xlink="http://www.w3.org/1999/xlink">
    <!-- Generator: Sketch 51.2 (57519) - http://www.bohemiancoding.com/sketch -->
    <title>icon_grid_detail</title>
    <desc>Created with Sketch.</desc>
    <defs></defs>
    <g id="Symbols" stroke="none" stroke-width="1" fill="none" fill-rule="evenodd">
        <g id="icon_grid_detail" fill="#171C8F">
            <path d="M18.848,23.188 L3.088,23.188 L3.088,9.44133333 L9.288,9.44133333 C9.5917037,9.44133333 9.83911111,9.19688889 9.83911111,8.8917037 L9.83911111,2.8117037 L18.848,2.8117037 L18.848,5.79985185 C18.2554074,5.6517037 17.6376296,5.5642963 16.9976296,5.5642963 C12.7620741,5.56577778 9.31466667,9.01614815 9.3117037,13.2517037 C9.31466667,17.4857778 12.7620741,20.9331852 16.9946667,20.9331852 C17.6361481,20.9331852 18.2539259,20.8442963 18.848,20.6961481 L18.848,23.188 Z M8.73837037,3.11540741 L8.73837037,8.34207407 L3.5117037,8.34207407 L8.73837037,3.11540741 Z M22.4805926,13.2502222 C22.4805926,16.2739259 20.0213333,18.7317037 16.9946667,18.7317037 C13.9739259,18.7317037 11.5146667,16.2739259 11.5117037,13.2517037 C11.5146667,10.228 13.9754074,7.76577778 16.9976296,7.7642963 C17.7472593,7.7642963 18.4598519,7.91540741 19.1131852,8.18948148 C19.288,8.40281481 19.5368889,8.53911111 19.8257778,8.57466667 C21.4094815,9.53614815 22.4805926,11.2635556 22.4805926,13.2502222 Z M26.4924444,21.4739259 L23.0198519,18.0028148 C24.0568889,16.6931852 24.6805926,15.0442963 24.6805926,13.2502222 C24.6805926,10.5005926 23.2242963,8.09022222 21.048,6.7317037 L21.048,1.71244444 C21.048,1.10503704 20.5561481,0.613185185 19.9487407,0.613185185 L8.58577778,0.613185185 C8.29392593,0.613185185 8.01540741,0.728740741 7.80948148,0.934666667 L1.21096296,7.53318519 C1.00503704,7.73911111 0.889481481,8.01911111 0.889481481,8.31096296 L0.889481481,24.2872593 C0.889481481,24.8946667 1.38133333,25.3865185 1.98874074,25.3865185 L19.9487407,25.3865185 C20.5561481,25.3865185 21.048,24.8946667 21.048,24.2872593 L21.048,19.7642963 C21.1754074,19.6857778 21.3013333,19.6028148 21.4242963,19.5154074 L24.9368889,23.0294815 C25.1531852,23.2442963 25.4331852,23.350963 25.7161481,23.350963 C25.9961481,23.350963 26.2791111,23.2442963 26.4924444,23.0294815 C26.9220741,22.5998519 26.9220741,21.9035556 26.4924444,21.4739259 Z" id="Fill-4"></path>
        </g>
    </g>
</svg>