<svg xmlns="http://www.w3.org/2000/svg" viewBox="0 0 24 24"><defs><style>.cls-1{fill:#171c8f;}.cls-2{fill:#f2eee8;}</style></defs><title>myrta_addattachment</title><g id="Layer_2" data-name="Layer 2"><g id="Layer_1-2" data-name="Layer 1"><circle class="cls-1" cx="12" cy="12" r="12"/><path class="cls-2" d="M8.77,15.23a.63.63,0,0,0,.88,0l5.41-5.41a.62.62,0,1,0-.88-.88L8.77,14.35A.63.63,0,0,0,8.77,15.23Z"/><path class="cls-2" d="M18.42,5.75l-.17-.17a3.32,3.32,0,0,0-4.7,0L12,7.12a3.29,3.29,0,0,0-.95,2.63.62.62,0,1,0,1.23-.11A2.08,2.08,0,0,1,12.89,8l1.54-1.54a2.08,2.08,0,0,1,2.94,0l.18.18a2.09,2.09,0,0,1,0,3L16,11.12a2.09,2.09,0,0,1-1.65.59.62.62,0,0,0-.11,1.23l.3,0a3.3,3.3,0,0,0,2.33-1l1.54-1.54A3.32,3.32,0,0,0,18.42,5.75Z"/><path class="cls-2" d="M12.27,13.69a.62.62,0,0,0-.56.67A2.07,2.07,0,0,1,11.12,16L9.58,17.55a2.09,2.09,0,0,1-2.95,0l-.17-.18a2,2,0,0,1-.61-1.47,2.06,2.06,0,0,1,.61-1.48L8,12.88a2.11,2.11,0,0,1,1.65-.59.62.62,0,1,0,.11-1.23A3.29,3.29,0,0,0,7.12,12L5.58,13.55a3.29,3.29,0,0,0-1,2.35,3.25,3.25,0,0,0,1,2.34l.17.18a3.33,3.33,0,0,0,4.7,0L12,16.88a3.26,3.26,0,0,0,.95-2.63A.62.62,0,0,0,12.27,13.69Z"/></g></g></svg>