<?xml version="1.0" encoding="utf-8"?>
<!-- Generator: Adobe Illustrator 22.1.0, SVG Export Plug-In . SVG Version: 6.00 Build 0)  -->
<svg version="1.1" id="Layer_1" xmlns="http://www.w3.org/2000/svg" xmlns:xlink="http://www.w3.org/1999/xlink" x="0px" y="0px"
	 viewBox="0 0 566.9 566.9" style="enable-background:new 0 0 566.9 566.9;" xml:space="preserve">
<style type="text/css">
	.st0{fill:#EE0000;}
	.st1{fill:#FFFFFF;}
</style>
<title>myrta_icon_shortleave</title>
<g id="Layer_2_1_">
	<g id="Layer_1-2">
		<rect class="st0" width="566.9" height="566.9"/>
		<g>
			<polygon class="st1" points="414,172.1 414,193.9 414,193.9 414,215.6 348.8,215.6 348.8,193.9 348.7,193.9 348.7,172.1 
				218.2,172.1 218.2,193.9 218.2,193.9 218.2,215.6 152.9,215.6 152.9,193.9 152.9,193.9 152.9,172.1 109.4,172.1 109.4,237.4 
				457.6,237.4 457.6,172.1 			"/>
			<polygon class="st1" points="196.4,172.1 196.4,128.6 174.7,128.6 174.7,172.1 174.7,193.9 196.4,193.9 			"/>
			<polygon class="st1" points="392.3,172.1 392.3,128.6 370.5,128.6 370.5,172.1 370.5,193.9 392.3,193.9 			"/>
			<path class="st1" d="M131.7,259.1v179.2h304.9V259.1H131.7z M339.1,386.6l-16.6,16.6l-38.4-38.4l-38.4,38.4l-16.6-16.6l38.4-38.4
				l-39.4-39.4l16.6-16.6l39.4,39.4l39.4-39.4l16.6,16.6l-39.4,39.4L339.1,386.6z"/>
		</g>
	</g>
</g>
</svg>
