<svg xmlns="http://www.w3.org/2000/svg" viewBox="0 0 23.21 22.21"><defs><style>.cls-1{fill:#171c8f;}</style></defs><title>myrta_gridicon_edit</title><g id="Layer_2" data-name="Layer 2"><g id="Layer_1-2" data-name="Layer 1"><path class="cls-1" d="M22.21,5.78a1,1,0,0,0-.29-.71L17.14.29a1,1,0,0,0-.7-.29,1,1,0,0,0-.71.29L.59,15.43a1,1,0,0,0-.29.65L0,21.16a1,1,0,0,0,1,1.05h.06l5.07-.3a.93.93,0,0,0,.65-.29L21.92,6.48A1,1,0,0,0,22.21,5.78ZM5.64,19.94l-2.26.13a1.8,1.8,0,0,0-1.24-1.25l.14-2.25L14,4.87l1,1L3.77,17a1,1,0,0,0,.71,1.71,1,1,0,0,0,.71-.3L16.37,7.26l1,1ZM18.76,6.82,15.4,3.45l1-1L19.8,5.78Z"/><path class="cls-1" d="M22.21,20.05H11a1,1,0,0,0,0,2H22.21a1,1,0,0,0,0-2Z"/></g></g></svg>