<svg xmlns="http://www.w3.org/2000/svg" viewBox="0 0 566.9 566.9"><defs><style>.cls-1{fill:#e00;}.cls-2{fill:#fff;}</style></defs><title>iconmain_pendingrequest_1</title><g id="Layer_2" data-name="Layer 2"><g id="Layer_1-2" data-name="Layer 1"><rect class="cls-1" width="566.9" height="566.9"/><path class="cls-2" d="M76.21,429.91A17.78,17.78,0,0,0,94,447.67H452.39a17.78,17.78,0,0,0,17.76-17.76V172.49l-3,1.12h0l-1,.38-193,193H269L76.08,174.12"/><path class="cls-2" d="M131.21,168.47l4.21,4.21L270.94,308.2,406.47,172.68l4.21-4.21h55.26"/><path class="cls-1" d="M412.12,315.68a78.73,78.73,0,1,0,78.73,78.73A78.71,78.71,0,0,0,412.12,315.68Z"/><path class="cls-2" d="M414.3,329.26a65.15,65.15,0,1,0,65.15,65.15A65.14,65.14,0,0,0,414.3,329.26Z"/><path class="cls-1" d="M401.07,360.94h17.06a0,0,0,0,1,0,0v59a0,0,0,0,1,0,0H407.79a6.72,6.72,0,0,1-6.72-6.72V360.94A0,0,0,0,1,401.07,360.94Z"/><path class="cls-1" d="M419.19,396.74h10.08a0,0,0,0,1,0,0v36a0,0,0,0,1,0,0H412.21a0,0,0,0,1,0,0V403.72A7,7,0,0,1,419.19,396.74Z" transform="translate(-92.97 706.57) rotate(-74.19)"/></g></g></svg>