<svg id="Layer_1" data-name="Layer 1" xmlns="http://www.w3.org/2000/svg" viewBox="0 0 566.93 566.93"><defs><style>.cls-1{fill:#e00;}.cls-2{fill:#fff;}</style></defs><title>icon_teamAttendance</title><rect class="cls-1" width="566.93" height="566.93"/><path class="cls-2" d="M286.34,282.29a59.95,59.95,0,1,0-59.94-60A59.87,59.87,0,0,0,286.34,282.29Z"/><path class="cls-2" d="M167.51,322.22a39.93,39.93,0,1,0-39.92-39.94A39.88,39.88,0,0,0,167.51,322.22Z"/><path class="cls-2" d="M186.9,462.13H385.8V421.9h81.68V379a36,36,0,0,0-36-36h-48a57.53,57.53,0,0,0-55.17-41.29H244.4A57.51,57.51,0,0,0,189.24,343h-48a36,36,0,0,0-36,36V421.9H186.9Z"/><path class="cls-2" d="M405.17,322.22a39.93,39.93,0,1,0-39.92-39.94A39.88,39.88,0,0,0,405.17,322.22Z"/></svg>