<svg xmlns="http://www.w3.org/2000/svg" viewBox="0 0 19.23 17.1"><defs><style>.cls-1{fill:#171c8f;}</style></defs><title>myrta_btn_shortleave</title><g id="Layer_2" data-name="Layer 2"><g id="Layer_1-2" data-name="Layer 1"><polygon class="cls-1" points="16.82 2.4 16.82 3.61 16.82 3.61 16.82 4.8 13.22 4.8 13.22 3.61 13.21 3.61 13.21 2.4 6.01 2.4 6.01 3.61 6.01 3.61 6.01 4.8 2.4 4.8 2.4 3.61 2.4 3.61 2.4 2.4 0 2.4 0 6.01 19.23 6.01 19.23 2.4 16.82 2.4"/><polygon class="cls-1" points="4.8 2.4 4.8 0 3.61 0 3.61 2.4 3.61 3.61 4.8 3.61 4.8 2.4"/><polygon class="cls-1" points="15.62 2.4 15.62 0 14.42 0 14.42 2.4 14.42 3.61 15.62 3.61 15.62 2.4"/><path class="cls-1" d="M1.23,7.21V17.1H18.07V7.21Zm11.45,7-.91.91L9.65,13,7.53,15.16l-.92-.91,2.12-2.12L6.55,10,7.47,9l2.18,2.18L11.82,9l.92.92-2.18,2.18Z"/></g></g></svg>