<svg xmlns="http://www.w3.org/2000/svg" viewBox="0 0 20.43 20.95"><defs><style>.cls-1{fill:#171c8f;}</style></defs><title>myrta_gridicon_download</title><g id="Layer_2" data-name="Layer 2"><g id="Layer_1-2" data-name="Layer 1"><path class="cls-1" d="M10.21,11.33a.92.92,0,0,1-.52-.17L4.93,7.69A.89.89,0,0,1,6,6.25l4.24,3.09,4.25-3.09a.89.89,0,0,1,1,1.44l-4.77,3.47a.93.93,0,0,1-.53.17Z"/><path class="cls-1" d="M10.21,11.33a.88.88,0,0,1-.88-.89V.89a.89.89,0,1,1,1.77,0v9.55a.89.89,0,0,1-.89.89Z"/><path class="cls-1" d="M19.54,21H.89A.89.89,0,0,1,0,20.06V13.77a.89.89,0,0,1,.89-.89H6.66a.89.89,0,0,1,.89.89V15h5.33V13.77a.89.89,0,0,1,.89-.89h5.77a.89.89,0,0,1,.89.89v6.29a.89.89,0,0,1-.89.89ZM1.78,19.17H18.65V14.66h-4V15a1.78,1.78,0,0,1-1.78,1.77H7.55A1.78,1.78,0,0,1,5.77,15v-.37h-4v4.51Z"/><path class="cls-1" d="M.89,14.66a.92.92,0,0,1-.62-.25.9.9,0,0,1,0-1.26l3.59-3.7a.89.89,0,0,1,1.28,1.23L1.53,14.39a.9.9,0,0,1-.64.27Z"/><path class="cls-1" d="M19.54,14.66a.9.9,0,0,1-.64-.27l-3.59-3.71a.89.89,0,0,1,1.28-1.23l3.59,3.7a.89.89,0,0,1-.64,1.51Z"/></g></g></svg>