<svg id="Layer_1" data-name="Layer 1" xmlns="http://www.w3.org/2000/svg" viewBox="0 0 96 132"><defs><style>.cls-1{fill:#333;}.cls-2{fill:#0f7ab3;}</style></defs><title>Artboard 1</title><rect class="cls-1" x="5.39" y="117.13" width="84.31" height="7.11"/><rect class="cls-1" x="5.9" y="8.95" width="84.31" height="7.11"/><path class="cls-1" d="M21.61,114C21.56,101.87,27.13,95,35,86.79A30.5,30.5,0,0,0,44,64.85C44,58,40.4,52.06,35.65,47.36,27,38.81,20.88,31.71,19.54,19.09c-.2-1.93-4.13-.95-3.92,1.05A37.64,37.64,0,0,0,25.81,43C32.26,50,39.18,54.81,40,65.1,40.86,76.41,33.45,83.54,26.37,91c-6.25,6.6-8.79,14.16-8.75,23.19,0,2.17,4,1.66,4-.24Z"/><path class="cls-1" d="M76.57,114c.05-12.09-5.52-18.94-13.41-27.17a30.5,30.5,0,0,1-8.95-21.94c0-6.89,3.57-12.79,8.32-17.49,8.62-8.55,14.76-15.65,16.11-28.27.2-1.93,4.13-.95,3.92,1.05A37.64,37.64,0,0,1,72.37,43C65.91,50,59,54.81,58.2,65.1,57.32,76.41,64.73,83.54,71.81,91c6.25,6.6,8.79,14.16,8.75,23.19,0,2.17-4,1.66-4-.24Z"/><path class="cls-2" d="M26.72,116.11l43.68-.68a17.08,17.08,0,0,0-2-11.51C65,97.83,58.55,97.49,54.83,89.36S49.41,83.61,47.38,84s-4.74,9.14-9.14,9.14-8.13,6.09-10.5,10.83S26.72,116.11,26.72,116.11Z"/><path class="cls-2" d="M34.51,41c6.1,4.06,23.7,1.69,28.1,0,1,4.4-12.19,15.57-12.19,19V70.06S49.07,68,47,65.32c0-3.72.34-.34,0-5.41S35.19,46,34.51,41Z"/><rect class="cls-2" x="47.8" y="71.38" width="2.03" height="2.37"/><rect class="cls-2" x="47.8" y="75.57" width="2.03" height="2.37"/><rect class="cls-2" x="48.05" y="79.54" width="2.03" height="2.37"/></svg>