<svg id="Layer_1" data-name="Layer 1" xmlns="http://www.w3.org/2000/svg" viewBox="0 0 566.93 566.93"><defs><style>.cls-1{fill:#e00;}.cls-2{fill:#fff;}</style></defs><title>iconmain_requestservices</title><rect class="cls-1" width="566.93" height="566.93"/><path class="cls-2" d="M480.56,159.84,432.73,112l-16.22,16.22L402,142.79A26.77,26.77,0,0,0,383.89,136h-262c-13.83,0-25,9.81-25,21.91V450.26c0,12.1,11.21,21.91,25,21.91H383.19c13.81,0,25-9.78,25-21.86l.41-170L313.4,374.54l-70.62-70.63L400.5,146.19l8,8,63.24,63.24,1-1,7.81-7.8,7.44-7.45.76-.75L505,184.26ZM296.33,391.43l-.65.65-76.51,16.29a9.23,9.23,0,0,1-10.32-10.31l16.3-76.51.65-.66Z"/></svg>