<svg id="Layer_1" data-name="Layer 1" xmlns="http://www.w3.org/2000/svg" viewBox="0 0 80 80"><defs><style>.cls-1{fill:#e00;}.cls-2{fill:#f2eee8;}.cls-3{fill:#fff;}</style></defs><title>myrta_icon_requestpending</title><g id="Layer_2" data-name="Layer 2"><g id="Layer_1-2" data-name="Layer 1-2"><rect class="cls-1" width="80" height="80"/></g></g><path class="cls-2" d="M54.67,52.94H18.15a4.74,4.74,0,0,1-4.74-4.74V24.31a4.75,4.75,0,0,1,4.74-4.74H54.67a4.75,4.75,0,0,1,4.74,4.74V48.2a4.74,4.74,0,0,1-4.74,4.74ZM18.15,23.59a.72.72,0,0,0-.72.72V48.2a.72.72,0,0,0,.72.72H54.67a.72.72,0,0,0,.72-.72V24.31a.73.73,0,0,0-.72-.72Z"/><path class="cls-2" d="M54.67,51.94H18.15a3.75,3.75,0,0,1-3.49-2.42,1,1,0,0,1,.27-1.1L29.19,35.71a1,1,0,0,1,1.41.08,1,1,0,0,1-.07,1.42L16.89,49.37a1.7,1.7,0,0,0,1.26.56H54.67a1.74,1.74,0,0,0,1.26-.56l-13.8-12.3a1,1,0,0,1-.08-1.42,1,1,0,0,1,1.42-.08L57.88,48.42a1,1,0,0,1,.27,1.1,3.74,3.74,0,0,1-3.48,2.42Z"/><path class="cls-2" d="M36.41,42.9a1,1,0,0,1-.67-.25L14.93,24.1A1,1,0,0,1,14.66,23a3.76,3.76,0,0,1,3.49-2.41H54.67A3.75,3.75,0,0,1,58.15,23a1,1,0,0,1-.27,1.11L37.08,42.65a1,1,0,0,1-.67.25ZM16.89,23.15l19.52,17.4,19.52-17.4a1.74,1.74,0,0,0-1.26-.56H18.15a1.7,1.7,0,0,0-1.26.56Z"/><polygon class="cls-3" points="50.27 41.84 46.63 41.84 46.63 45.48 50.27 45.48 50.27 41.84 50.27 41.84"/><circle class="cls-1" cx="54.56" cy="50.87" r="13"/><path class="cls-3" d="M54.33,60.57A10.24,10.24,0,1,1,64.56,50.32h0A10.25,10.25,0,0,1,54.33,60.57Zm0-18.72a8.48,8.48,0,1,0,8.48,8.48h0A8.5,8.5,0,0,0,54.33,41.85Z"/><path class="cls-3" d="M54.33,51.21a.87.87,0,0,1-.88-.86V44a.88.88,0,1,1,1.76,0v6.33a.87.87,0,0,1-.88.88Z"/><path class="cls-3" d="M54.33,42.42a.87.87,0,0,1-.88-.86h0V41a.88.88,0,1,1,1.76,0h0v.57a.89.89,0,0,1-.88.87Z"/><path class="cls-3" d="M54.33,60.57a.87.87,0,0,1-.88-.86v-.59a.88.88,0,1,1,1.76,0v.57a.87.87,0,0,1-.88.88Z"/><path class="cls-3" d="M63.68,51.21h-.57a.88.88,0,0,1-.78-1,.87.87,0,0,1,.78-.78h.57a.88.88,0,0,1,.19,1.75Z"/><path class="cls-3" d="M45.54,51.21H45a.88.88,0,0,1-.19-1.75h.76a.88.88,0,1,1,.19,1.75h-.22Z"/><path class="cls-3" d="M58.32,43.86a.43.43,0,0,1-.22-.06.44.44,0,0,1-.16-.6l.25-.44a.44.44,0,0,1,.6-.16.43.43,0,0,1,.17.58v0l-.25.44A.43.43,0,0,1,58.32,43.86Z"/><path class="cls-3" d="M50.08,58.13a.44.44,0,0,1-.38-.65h0L50,57a.44.44,0,0,1,.76.43l-.26.45a.43.43,0,0,1-.38.22Z"/><path class="cls-3" d="M61.69,55a.43.43,0,0,1-.22-.06L61,54.71a.44.44,0,0,1-.16-.6.43.43,0,0,1,.58-.17h0l.44.25a.44.44,0,0,1,.16.6.45.45,0,0,1-.37.22Z"/><path class="cls-3" d="M47.42,46.78a.43.43,0,0,1-.22-.06l-.45-.25a.44.44,0,0,1-.16-.6.43.43,0,0,1,.58-.17h0l.45.25a.44.44,0,0,1,.16.6A.43.43,0,0,1,47.42,46.78Z"/><path class="cls-3" d="M50.34,43.86a.43.43,0,0,1-.38-.22l-.26-.44a.44.44,0,0,1,.73-.49l0,0,.26.44a.44.44,0,0,1-.16.6A.43.43,0,0,1,50.34,43.86Z"/><path class="cls-3" d="M58.58,58.13a.43.43,0,0,1-.38-.22l-.26-.44a.44.44,0,0,1,.16-.6.43.43,0,0,1,.59.14v0l.26.44a.44.44,0,0,1-.16.6A.43.43,0,0,1,58.58,58.13Z"/><path class="cls-3" d="M47,55a.44.44,0,0,1-.44-.44.45.45,0,0,1,.22-.38l.45-.26a.44.44,0,0,1,.44.77l-.45.25A.43.43,0,0,1,47,55Z"/><path class="cls-3" d="M61.24,46.78a.44.44,0,0,1-.4-.48A.47.47,0,0,1,61,46l.45-.25a.43.43,0,0,1,.59.14v0a.44.44,0,0,1-.17.6h0l-.44.25a.43.43,0,0,1-.22.06Z"/><path class="cls-3" d="M51.68,53.86a.85.85,0,0,1-.62-.26.87.87,0,0,1,0-1.22l0,0,2.54-2.54a.88.88,0,0,1,1.24,0,.87.87,0,0,1,0,1.22l0,0L52.3,53.6A.85.85,0,0,1,51.68,53.86Z"/></svg>