<svg xmlns="http://www.w3.org/2000/svg" viewBox="0 0 165.46 168.26"><defs><style>.cls-1{fill:#0f7ab3;}</style></defs><title>Asset 1</title><g id="Layer_2" data-name="Layer 2"><g id="Layer_1-2" data-name="Layer 1"><path class="cls-1" d="M72.19,144.39A72.2,72.2,0,1,1,144.4,72.2a72.27,72.27,0,0,1-72.21,72.19Zm0-129.9a57.71,57.71,0,1,0,57.71,57.72A57.8,57.8,0,0,0,72.2,14.49Z"/><path class="cls-1" d="M31.59,72.19H24.34A47.93,47.93,0,0,1,72.2,24.34v7.24A40.67,40.67,0,0,0,31.59,72.19Z"/><path class="cls-1" d="M158.22,168.26a7.19,7.19,0,0,1-5.12-2.12l-40.33-40.32A7.24,7.24,0,1,1,123,115.58l40.33,40.32a7.24,7.24,0,0,1-5.12,12.36Z"/></g></g></svg>