<svg id="Layer_2" data-name="Layer 2" xmlns="http://www.w3.org/2000/svg" width="60.259" height="53.658" viewBox="0 0 60.259 53.658">
  <g id="Adaa" transform="translate(0 0)">
    <path id="Path_21" data-name="Path 21" d="M144.009,28.739A2.139,2.139,0,0,1,141.87,26.6V2.139a2.139,2.139,0,1,1,4.277,0V26.6a2.139,2.139,0,0,1-2.139,2.135Z" transform="translate(-85.888 0)" fill="#171c8f"/>
    <path id="Path_22" data-name="Path 22" d="M127.539,43.4a2.139,2.139,0,0,1-2.139-2.135V26.359a2.139,2.139,0,0,1,4.277,0V41.267A2.139,2.139,0,0,1,127.539,43.4Z" transform="translate(-75.917 -14.663)" fill="#171c8f"/>
    <path id="Path_23" data-name="Path 23" d="M109.132,36.407A2.135,2.135,0,0,1,107,34.273V14.9a2.139,2.139,0,1,1,4.273,0V34.273a2.135,2.135,0,0,1-2.139,2.135Z" transform="translate(-64.775 -7.669)" fill="#171c8f"/>
    <path id="Path_24" data-name="Path 24" d="M90.716,42.673a2.135,2.135,0,0,1-2.139-2.135V25.248a2.139,2.139,0,1,1,4.273,0V40.538A2.135,2.135,0,0,1,90.716,42.673Z" transform="translate(-53.624 -13.935)" fill="#171c8f"/>
    <text id="Adaa-2" data-name="Adaa" transform="translate(0 44.658)" fill="#171c8f" font-size="24" font-family="RTA-Bold, RTA" font-weight="700"><tspan x="0" y="0">Adaa</tspan></text>
  </g>
</svg>
