<svg xmlns="http://www.w3.org/2000/svg" width="60.732" height="39.5" viewBox="0 0 60.732 39.5">
  <g id="Layer_2" data-name="Layer 2" transform="translate(0 0.069)">
    <g id="Layer_1" data-name="Layer 1" transform="translate(0 -0.069)">
      <path id="Path_19" data-name="Path 19" d="M47.72,3.091,44.168,5.02l-12.5-3.836a3.469,3.469,0,0,0-3.481.852L22.752,7.459l-4.132,4.108-.379.379-.379.367a3.338,3.338,0,0,0,0,4.735,3.3,3.3,0,0,0,1.089.722,3.35,3.35,0,0,0,2.51,0h.083a3.267,3.267,0,0,0,1.03-.687h0l2.2-2.19.817-.817.935-.923.923-.935h0L29.63,10.1l8.7,16.029a5.422,5.422,0,0,0,7.34,2.226L57.629,21.63Z" transform="translate(3.103 0.27)" fill="#171c8f"/>
      <path id="Path_20" data-name="Path 20" d="M36.7,26.614,31.36,16.587l-.142.154-2.427,2.427h0l-.154.154h0a6.712,6.712,0,0,1-1.847,1.184,4.735,4.735,0,0,1-.592.237H26.1a6.926,6.926,0,0,1-6.772-1.421l-.272-.26a6.89,6.89,0,0,1-1.942-5.86,2.417,2.417,0,0,1,.095-.509A6.961,6.961,0,0,1,18.5,9.945a7.257,7.257,0,0,1,.58-.639l.331-.32c.189-.154.367-.3.568-.438l3.812-3.8L27.347,1.2a5.6,5.6,0,0,0-7.257.142h0l-.414.45-5.469,5.99L9.85,5.411,0,23.986l7.932,4.238,4.735,8.9h0a3.256,3.256,0,0,0,.627.9,3.327,3.327,0,0,0,5.683-2.616l1.184,2.155h0a3.552,3.552,0,0,0,.627.9,3.338,3.338,0,0,0,5.552-3.315,2.6,2.6,0,0,0,.237.272,3.327,3.327,0,0,0,5.233-4.037h0l-.474-.888.142.142A3.327,3.327,0,0,0,36.7,26.614Z" transform="translate(0 0.069)" fill="#171c8f"/>
    </g>
  </g>
</svg>
