<svg xmlns="http://www.w3.org/2000/svg" viewBox="0 0 177.24 142.8"><defs><style>.cls-1{fill:#171c8f;}</style></defs><title>Asset 13</title><g id="Layer_2" data-name="Layer 2"><g id="Automation"><path class="cls-1" d="M158.07,117.61V105.05l-8.5-.55a24.28,24.28,0,0,0-1.9-4.58l5.63-6.4-8.89-8.89L138,90.26a23.64,23.64,0,0,0-4.58-1.9l-.55-8.51H120.32l-.55,8.51a24,24,0,0,0-4.59,1.9l-6.4-5.63L99.9,93.52l5.63,6.4a23.64,23.64,0,0,0-1.9,4.58l-8.51.55v12.56l8.51.55a23.64,23.64,0,0,0,1.9,4.58l-5.63,6.4,8.88,8.89,6.4-5.63a24,24,0,0,0,4.59,1.89l.55,8.51h12.56l.55-8.51A23.61,23.61,0,0,0,138,132.4l6.4,5.63,8.89-8.88-5.63-6.41a24.28,24.28,0,0,0,1.9-4.58ZM127.44,123a11.26,11.26,0,1,1,11.26-11.26A11.26,11.26,0,0,1,127.44,123Z"/><path class="cls-1" d="M177.24,46.23V30.85l-10.42-.67a28.9,28.9,0,0,0-2.32-5.62l6.89-7.83L160.51,5.85l-7.84,6.89a29.07,29.07,0,0,0-5.61-2.32L146.38,0H131l-.67,10.42a28.9,28.9,0,0,0-5.62,2.32l-7.84-6.89L106,16.73l6.88,7.83a30.2,30.2,0,0,0-2.32,5.62l-10.41.67V46.23l10.41.67a29.44,29.44,0,0,0,2.32,5.61L106,60.35l10.87,10.88,7.84-6.89a29.07,29.07,0,0,0,5.61,2.32L131,77.08h15.37l.68-10.42a29.07,29.07,0,0,0,5.61-2.32l7.84,6.89,10.88-10.87-6.89-7.85a29.18,29.18,0,0,0,2.32-5.61Zm-37.52,6.63a13.79,13.79,0,1,1,13.79-13.78A13.78,13.78,0,0,1,139.72,52.86Z"/><path class="cls-1" d="M104.26,76.71V55.91L90.17,55A39.25,39.25,0,0,0,87,47.41l9.32-10.6L81.64,22.09,71,31.41a39.25,39.25,0,0,0-7.59-3.14l-.91-14.09H41.73l-.91,14.09a39.61,39.61,0,0,0-7.6,3.14l-10.6-9.32L7.91,36.81l9.32,10.6A39.25,39.25,0,0,0,14.09,55L0,55.91v20.8l14.09.91a39.61,39.61,0,0,0,3.14,7.6L7.91,95.82l14.71,14.71,10.6-9.32a39.61,39.61,0,0,0,7.6,3.14l.91,14.09h20.8l.91-14.09A39.25,39.25,0,0,0,71,101.21l10.61,9.32L96.35,95.82,87,85.22a39.61,39.61,0,0,0,3.14-7.6ZM52.8,40.49A10.81,10.81,0,1,1,42,51.3,10.8,10.8,0,0,1,52.8,40.49ZM74.65,88.54H31v-8A14.4,14.4,0,0,1,45.31,66.17h15A14.4,14.4,0,0,1,74.65,80.52Z"/></g></g></svg>